<?xml version="1.0" encoding="utf-8" standalone="no"?>
<!DOCTYPE svg PUBLIC "-//W3C//DTD SVG 1.1//EN"
  "http://www.w3.org/Graphics/SVG/1.1/DTD/svg11.dtd">
<svg xmlns:xlink="http://www.w3.org/1999/xlink" width="713.245937pt" height="543.156875pt" viewBox="0 0 713.245937 543.156875" xmlns="http://www.w3.org/2000/svg" version="1.1">
 <metadata>
  <rdf:RDF xmlns:dc="http://purl.org/dc/elements/1.1/" xmlns:cc="http://creativecommons.org/ns#" xmlns:rdf="http://www.w3.org/1999/02/22-rdf-syntax-ns#">
   <cc:Work>
    <dc:type rdf:resource="http://purl.org/dc/dcmitype/StillImage"/>
    <dc:date>2024-11-04T10:54:05.846584</dc:date>
    <dc:format>image/svg+xml</dc:format>
    <dc:creator>
     <cc:Agent>
      <dc:title>Matplotlib v3.9.0, https://matplotlib.org/</dc:title>
     </cc:Agent>
    </dc:creator>
   </cc:Work>
  </rdf:RDF>
 </metadata>
 <defs>
  <style type="text/css">*{stroke-linejoin: round; stroke-linecap: butt}</style>
 </defs>
 <g id="figure_1">
  <g id="patch_1">
   <path d="M 0 543.156875 
L 713.245937 543.156875 
L 713.245937 0 
L 0 0 
z
" style="fill: #ffffff"/>
  </g>
  <g id="axes_1">
   <g id="patch_2">
    <path d="M 95.065938 464.896875 
L 706.045937 464.896875 
L 706.045937 28.396875 
L 95.065938 28.396875 
z
" style="fill: #ffffff"/>
   </g>
   <g id="PathCollection_1">
    <defs>
     <path id="ma5d4b0a34a" d="M 0 3.162278 
C 0.838646 3.162278 1.643056 2.82908 2.236068 2.236068 
C 2.82908 1.643056 3.162278 0.838646 3.162278 0 
C 3.162278 -0.838646 2.82908 -1.643056 2.236068 -2.236068 
C 1.643056 -2.82908 0.838646 -3.162278 0 -3.162278 
C -0.838646 -3.162278 -1.643056 -2.82908 -2.236068 -2.236068 
C -2.82908 -1.643056 -3.162278 -0.838646 -3.162278 0 
C -3.162278 0.838646 -2.82908 1.643056 -2.236068 2.236068 
C -1.643056 2.82908 -0.838646 3.162278 0 3.162278 
z
" style="stroke: #1f77b4; stroke-opacity: 0.9"/>
    </defs>
    <g clip-path="url(#p5f136c3cb6)">
     <use xlink:href="#ma5d4b0a34a" x="138.707366" y="330.336196" style="fill: #1f77b4; fill-opacity: 0.9; stroke: #1f77b4; stroke-opacity: 0.9"/>
     <use xlink:href="#ma5d4b0a34a" x="154.576976" y="417.291517" style="fill: #1f77b4; fill-opacity: 0.9; stroke: #1f77b4; stroke-opacity: 0.9"/>
     <use xlink:href="#ma5d4b0a34a" x="170.446587" y="437.923206" style="fill: #1f77b4; fill-opacity: 0.9; stroke: #1f77b4; stroke-opacity: 0.9"/>
     <use xlink:href="#ma5d4b0a34a" x="186.316197" y="431.9092" style="fill: #1f77b4; fill-opacity: 0.9; stroke: #1f77b4; stroke-opacity: 0.9"/>
     <use xlink:href="#ma5d4b0a34a" x="202.185808" y="395.572272" style="fill: #1f77b4; fill-opacity: 0.9; stroke: #1f77b4; stroke-opacity: 0.9"/>
     <use xlink:href="#ma5d4b0a34a" x="218.055418" y="372.26599" style="fill: #1f77b4; fill-opacity: 0.9; stroke: #1f77b4; stroke-opacity: 0.9"/>
     <use xlink:href="#ma5d4b0a34a" x="233.925028" y="360.710106" style="fill: #1f77b4; fill-opacity: 0.9; stroke: #1f77b4; stroke-opacity: 0.9"/>
     <use xlink:href="#ma5d4b0a34a" x="249.794639" y="349.853328" style="fill: #1f77b4; fill-opacity: 0.9; stroke: #1f77b4; stroke-opacity: 0.9"/>
     <use xlink:href="#ma5d4b0a34a" x="265.664249" y="325.786487" style="fill: #1f77b4; fill-opacity: 0.9; stroke: #1f77b4; stroke-opacity: 0.9"/>
     <use xlink:href="#ma5d4b0a34a" x="281.53386" y="313.382307" style="fill: #1f77b4; fill-opacity: 0.9; stroke: #1f77b4; stroke-opacity: 0.9"/>
     <use xlink:href="#ma5d4b0a34a" x="297.40347" y="290.717638" style="fill: #1f77b4; fill-opacity: 0.9; stroke: #1f77b4; stroke-opacity: 0.9"/>
     <use xlink:href="#ma5d4b0a34a" x="313.27308" y="281.7063" style="fill: #1f77b4; fill-opacity: 0.9; stroke: #1f77b4; stroke-opacity: 0.9"/>
     <use xlink:href="#ma5d4b0a34a" x="329.142691" y="266.409971" style="fill: #1f77b4; fill-opacity: 0.9; stroke: #1f77b4; stroke-opacity: 0.9"/>
     <use xlink:href="#ma5d4b0a34a" x="345.012301" y="271.203874" style="fill: #1f77b4; fill-opacity: 0.9; stroke: #1f77b4; stroke-opacity: 0.9"/>
     <use xlink:href="#ma5d4b0a34a" x="360.881912" y="273.082596" style="fill: #1f77b4; fill-opacity: 0.9; stroke: #1f77b4; stroke-opacity: 0.9"/>
     <use xlink:href="#ma5d4b0a34a" x="376.751522" y="259.392206" style="fill: #1f77b4; fill-opacity: 0.9; stroke: #1f77b4; stroke-opacity: 0.9"/>
     <use xlink:href="#ma5d4b0a34a" x="392.621132" y="246.049975" style="fill: #1f77b4; fill-opacity: 0.9; stroke: #1f77b4; stroke-opacity: 0.9"/>
     <use xlink:href="#ma5d4b0a34a" x="408.490743" y="229.851583" style="fill: #1f77b4; fill-opacity: 0.9; stroke: #1f77b4; stroke-opacity: 0.9"/>
     <use xlink:href="#ma5d4b0a34a" x="424.360353" y="219.613217" style="fill: #1f77b4; fill-opacity: 0.9; stroke: #1f77b4; stroke-opacity: 0.9"/>
     <use xlink:href="#ma5d4b0a34a" x="440.229963" y="219.115937" style="fill: #1f77b4; fill-opacity: 0.9; stroke: #1f77b4; stroke-opacity: 0.9"/>
     <use xlink:href="#ma5d4b0a34a" x="456.099574" y="208.735217" style="fill: #1f77b4; fill-opacity: 0.9; stroke: #1f77b4; stroke-opacity: 0.9"/>
     <use xlink:href="#ma5d4b0a34a" x="471.969184" y="204.832539" style="fill: #1f77b4; fill-opacity: 0.9; stroke: #1f77b4; stroke-opacity: 0.9"/>
     <use xlink:href="#ma5d4b0a34a" x="487.838795" y="189.610644" style="fill: #1f77b4; fill-opacity: 0.9; stroke: #1f77b4; stroke-opacity: 0.9"/>
     <use xlink:href="#ma5d4b0a34a" x="503.708405" y="183.154529" style="fill: #1f77b4; fill-opacity: 0.9; stroke: #1f77b4; stroke-opacity: 0.9"/>
     <use xlink:href="#ma5d4b0a34a" x="519.578015" y="187.167876" style="fill: #1f77b4; fill-opacity: 0.9; stroke: #1f77b4; stroke-opacity: 0.9"/>
     <use xlink:href="#ma5d4b0a34a" x="535.447626" y="201.081205" style="fill: #1f77b4; fill-opacity: 0.9; stroke: #1f77b4; stroke-opacity: 0.9"/>
     <use xlink:href="#ma5d4b0a34a" x="551.317236" y="201.057994" style="fill: #1f77b4; fill-opacity: 0.9; stroke: #1f77b4; stroke-opacity: 0.9"/>
     <use xlink:href="#ma5d4b0a34a" x="567.186847" y="205.961119" style="fill: #1f77b4; fill-opacity: 0.9; stroke: #1f77b4; stroke-opacity: 0.9"/>
     <use xlink:href="#ma5d4b0a34a" x="583.056457" y="203.509319" style="fill: #1f77b4; fill-opacity: 0.9; stroke: #1f77b4; stroke-opacity: 0.9"/>
     <use xlink:href="#ma5d4b0a34a" x="598.926067" y="194.51854" style="fill: #1f77b4; fill-opacity: 0.9; stroke: #1f77b4; stroke-opacity: 0.9"/>
     <use xlink:href="#ma5d4b0a34a" x="614.795678" y="193.436534" style="fill: #1f77b4; fill-opacity: 0.9; stroke: #1f77b4; stroke-opacity: 0.9"/>
     <use xlink:href="#ma5d4b0a34a" x="630.665288" y="188.79755" style="fill: #1f77b4; fill-opacity: 0.9; stroke: #1f77b4; stroke-opacity: 0.9"/>
     <use xlink:href="#ma5d4b0a34a" x="646.534899" y="189.669952" style="fill: #1f77b4; fill-opacity: 0.9; stroke: #1f77b4; stroke-opacity: 0.9"/>
     <use xlink:href="#ma5d4b0a34a" x="662.404509" y="180.875476" style="fill: #1f77b4; fill-opacity: 0.9; stroke: #1f77b4; stroke-opacity: 0.9"/>
     <use xlink:href="#ma5d4b0a34a" x="678.274119" y="182.594467" style="fill: #1f77b4; fill-opacity: 0.9; stroke: #1f77b4; stroke-opacity: 0.9"/>
    </g>
   </g>
   <g id="PathCollection_2">
    <defs>
     <path id="m84d2fac2f4" d="M 0 3.162278 
C 0.838646 3.162278 1.643056 2.82908 2.236068 2.236068 
C 2.82908 1.643056 3.162278 0.838646 3.162278 0 
C 3.162278 -0.838646 2.82908 -1.643056 2.236068 -2.236068 
C 1.643056 -2.82908 0.838646 -3.162278 0 -3.162278 
C -0.838646 -3.162278 -1.643056 -2.82908 -2.236068 -2.236068 
C -2.82908 -1.643056 -3.162278 -0.838646 -3.162278 0 
C -3.162278 0.838646 -2.82908 1.643056 -2.236068 2.236068 
C -1.643056 2.82908 -0.838646 3.162278 0 3.162278 
z
" style="stroke: #ff7f0e; stroke-opacity: 0.9"/>
    </defs>
    <g clip-path="url(#p5f136c3cb6)">
     <use xlink:href="#m84d2fac2f4" x="138.707366" y="332.666873" style="fill: #ff7f0e; fill-opacity: 0.9; stroke: #ff7f0e; stroke-opacity: 0.9"/>
     <use xlink:href="#m84d2fac2f4" x="154.576976" y="369.492096" style="fill: #ff7f0e; fill-opacity: 0.9; stroke: #ff7f0e; stroke-opacity: 0.9"/>
     <use xlink:href="#m84d2fac2f4" x="170.446587" y="399.018589" style="fill: #ff7f0e; fill-opacity: 0.9; stroke: #ff7f0e; stroke-opacity: 0.9"/>
     <use xlink:href="#m84d2fac2f4" x="186.316197" y="410.087149" style="fill: #ff7f0e; fill-opacity: 0.9; stroke: #ff7f0e; stroke-opacity: 0.9"/>
     <use xlink:href="#m84d2fac2f4" x="202.185808" y="375.533488" style="fill: #ff7f0e; fill-opacity: 0.9; stroke: #ff7f0e; stroke-opacity: 0.9"/>
     <use xlink:href="#m84d2fac2f4" x="218.055418" y="357.520315" style="fill: #ff7f0e; fill-opacity: 0.9; stroke: #ff7f0e; stroke-opacity: 0.9"/>
     <use xlink:href="#m84d2fac2f4" x="233.925028" y="341.616529" style="fill: #ff7f0e; fill-opacity: 0.9; stroke: #ff7f0e; stroke-opacity: 0.9"/>
     <use xlink:href="#m84d2fac2f4" x="249.794639" y="335.225426" style="fill: #ff7f0e; fill-opacity: 0.9; stroke: #ff7f0e; stroke-opacity: 0.9"/>
     <use xlink:href="#m84d2fac2f4" x="265.664249" y="317.186712" style="fill: #ff7f0e; fill-opacity: 0.9; stroke: #ff7f0e; stroke-opacity: 0.9"/>
     <use xlink:href="#m84d2fac2f4" x="281.53386" y="307.51959" style="fill: #ff7f0e; fill-opacity: 0.9; stroke: #ff7f0e; stroke-opacity: 0.9"/>
     <use xlink:href="#m84d2fac2f4" x="297.40347" y="302.231539" style="fill: #ff7f0e; fill-opacity: 0.9; stroke: #ff7f0e; stroke-opacity: 0.9"/>
     <use xlink:href="#m84d2fac2f4" x="313.27308" y="276.684577" style="fill: #ff7f0e; fill-opacity: 0.9; stroke: #ff7f0e; stroke-opacity: 0.9"/>
     <use xlink:href="#m84d2fac2f4" x="329.142691" y="243.551458" style="fill: #ff7f0e; fill-opacity: 0.9; stroke: #ff7f0e; stroke-opacity: 0.9"/>
     <use xlink:href="#m84d2fac2f4" x="345.012301" y="248.379191" style="fill: #ff7f0e; fill-opacity: 0.9; stroke: #ff7f0e; stroke-opacity: 0.9"/>
     <use xlink:href="#m84d2fac2f4" x="360.881912" y="242.142179" style="fill: #ff7f0e; fill-opacity: 0.9; stroke: #ff7f0e; stroke-opacity: 0.9"/>
     <use xlink:href="#m84d2fac2f4" x="376.751522" y="216.168711" style="fill: #ff7f0e; fill-opacity: 0.9; stroke: #ff7f0e; stroke-opacity: 0.9"/>
     <use xlink:href="#m84d2fac2f4" x="392.621132" y="195.858214" style="fill: #ff7f0e; fill-opacity: 0.9; stroke: #ff7f0e; stroke-opacity: 0.9"/>
     <use xlink:href="#m84d2fac2f4" x="408.490743" y="190.256728" style="fill: #ff7f0e; fill-opacity: 0.9; stroke: #ff7f0e; stroke-opacity: 0.9"/>
     <use xlink:href="#m84d2fac2f4" x="424.360353" y="198.309942" style="fill: #ff7f0e; fill-opacity: 0.9; stroke: #ff7f0e; stroke-opacity: 0.9"/>
     <use xlink:href="#m84d2fac2f4" x="440.229963" y="210.09171" style="fill: #ff7f0e; fill-opacity: 0.9; stroke: #ff7f0e; stroke-opacity: 0.9"/>
     <use xlink:href="#m84d2fac2f4" x="456.099574" y="201.630183" style="fill: #ff7f0e; fill-opacity: 0.9; stroke: #ff7f0e; stroke-opacity: 0.9"/>
     <use xlink:href="#m84d2fac2f4" x="471.969184" y="194.086482" style="fill: #ff7f0e; fill-opacity: 0.9; stroke: #ff7f0e; stroke-opacity: 0.9"/>
     <use xlink:href="#m84d2fac2f4" x="487.838795" y="204.570049" style="fill: #ff7f0e; fill-opacity: 0.9; stroke: #ff7f0e; stroke-opacity: 0.9"/>
     <use xlink:href="#m84d2fac2f4" x="503.708405" y="198.258986" style="fill: #ff7f0e; fill-opacity: 0.9; stroke: #ff7f0e; stroke-opacity: 0.9"/>
     <use xlink:href="#m84d2fac2f4" x="519.578015" y="196.305091" style="fill: #ff7f0e; fill-opacity: 0.9; stroke: #ff7f0e; stroke-opacity: 0.9"/>
     <use xlink:href="#m84d2fac2f4" x="535.447626" y="211.707695" style="fill: #ff7f0e; fill-opacity: 0.9; stroke: #ff7f0e; stroke-opacity: 0.9"/>
     <use xlink:href="#m84d2fac2f4" x="551.317236" y="221.26901" style="fill: #ff7f0e; fill-opacity: 0.9; stroke: #ff7f0e; stroke-opacity: 0.9"/>
     <use xlink:href="#m84d2fac2f4" x="567.186847" y="230.286953" style="fill: #ff7f0e; fill-opacity: 0.9; stroke: #ff7f0e; stroke-opacity: 0.9"/>
     <use xlink:href="#m84d2fac2f4" x="583.056457" y="215.45739" style="fill: #ff7f0e; fill-opacity: 0.9; stroke: #ff7f0e; stroke-opacity: 0.9"/>
     <use xlink:href="#m84d2fac2f4" x="598.926067" y="205.460766" style="fill: #ff7f0e; fill-opacity: 0.9; stroke: #ff7f0e; stroke-opacity: 0.9"/>
     <use xlink:href="#m84d2fac2f4" x="614.795678" y="200.660231" style="fill: #ff7f0e; fill-opacity: 0.9; stroke: #ff7f0e; stroke-opacity: 0.9"/>
    </g>
   </g>
   <g id="PathCollection_3">
    <defs>
     <path id="m147b2a4f1e" d="M 0 3.162278 
C 0.838646 3.162278 1.643056 2.82908 2.236068 2.236068 
C 2.82908 1.643056 3.162278 0.838646 3.162278 0 
C 3.162278 -0.838646 2.82908 -1.643056 2.236068 -2.236068 
C 1.643056 -2.82908 0.838646 -3.162278 0 -3.162278 
C -0.838646 -3.162278 -1.643056 -2.82908 -2.236068 -2.236068 
C -2.82908 -1.643056 -3.162278 -0.838646 -3.162278 0 
C -3.162278 0.838646 -2.82908 1.643056 -2.236068 2.236068 
C -1.643056 2.82908 -0.838646 3.162278 0 3.162278 
z
" style="stroke: #2ca02c; stroke-opacity: 0.9"/>
    </defs>
    <g clip-path="url(#p5f136c3cb6)">
     <use xlink:href="#m147b2a4f1e" x="138.707366" y="330.437149" style="fill: #2ca02c; fill-opacity: 0.9; stroke: #2ca02c; stroke-opacity: 0.9"/>
     <use xlink:href="#m147b2a4f1e" x="154.576976" y="400.85502" style="fill: #2ca02c; fill-opacity: 0.9; stroke: #2ca02c; stroke-opacity: 0.9"/>
     <use xlink:href="#m147b2a4f1e" x="170.446587" y="431.668491" style="fill: #2ca02c; fill-opacity: 0.9; stroke: #2ca02c; stroke-opacity: 0.9"/>
     <use xlink:href="#m147b2a4f1e" x="186.316197" y="414.125327" style="fill: #2ca02c; fill-opacity: 0.9; stroke: #2ca02c; stroke-opacity: 0.9"/>
     <use xlink:href="#m147b2a4f1e" x="202.185808" y="376.514489" style="fill: #2ca02c; fill-opacity: 0.9; stroke: #2ca02c; stroke-opacity: 0.9"/>
     <use xlink:href="#m147b2a4f1e" x="218.055418" y="350.193565" style="fill: #2ca02c; fill-opacity: 0.9; stroke: #2ca02c; stroke-opacity: 0.9"/>
     <use xlink:href="#m147b2a4f1e" x="233.925028" y="320.231466" style="fill: #2ca02c; fill-opacity: 0.9; stroke: #2ca02c; stroke-opacity: 0.9"/>
     <use xlink:href="#m147b2a4f1e" x="249.794639" y="314.904576" style="fill: #2ca02c; fill-opacity: 0.9; stroke: #2ca02c; stroke-opacity: 0.9"/>
     <use xlink:href="#m147b2a4f1e" x="265.664249" y="309.155624" style="fill: #2ca02c; fill-opacity: 0.9; stroke: #2ca02c; stroke-opacity: 0.9"/>
     <use xlink:href="#m147b2a4f1e" x="281.53386" y="283.628484" style="fill: #2ca02c; fill-opacity: 0.9; stroke: #2ca02c; stroke-opacity: 0.9"/>
     <use xlink:href="#m147b2a4f1e" x="297.40347" y="267.623908" style="fill: #2ca02c; fill-opacity: 0.9; stroke: #2ca02c; stroke-opacity: 0.9"/>
     <use xlink:href="#m147b2a4f1e" x="313.27308" y="245.690944" style="fill: #2ca02c; fill-opacity: 0.9; stroke: #2ca02c; stroke-opacity: 0.9"/>
     <use xlink:href="#m147b2a4f1e" x="329.142691" y="245.004117" style="fill: #2ca02c; fill-opacity: 0.9; stroke: #2ca02c; stroke-opacity: 0.9"/>
     <use xlink:href="#m147b2a4f1e" x="345.012301" y="252.160245" style="fill: #2ca02c; fill-opacity: 0.9; stroke: #2ca02c; stroke-opacity: 0.9"/>
     <use xlink:href="#m147b2a4f1e" x="360.881912" y="237.587392" style="fill: #2ca02c; fill-opacity: 0.9; stroke: #2ca02c; stroke-opacity: 0.9"/>
     <use xlink:href="#m147b2a4f1e" x="376.751522" y="250.882446" style="fill: #2ca02c; fill-opacity: 0.9; stroke: #2ca02c; stroke-opacity: 0.9"/>
     <use xlink:href="#m147b2a4f1e" x="392.621132" y="225.821828" style="fill: #2ca02c; fill-opacity: 0.9; stroke: #2ca02c; stroke-opacity: 0.9"/>
     <use xlink:href="#m147b2a4f1e" x="408.490743" y="215.511413" style="fill: #2ca02c; fill-opacity: 0.9; stroke: #2ca02c; stroke-opacity: 0.9"/>
     <use xlink:href="#m147b2a4f1e" x="424.360353" y="200.560407" style="fill: #2ca02c; fill-opacity: 0.9; stroke: #2ca02c; stroke-opacity: 0.9"/>
     <use xlink:href="#m147b2a4f1e" x="440.229963" y="198.57844" style="fill: #2ca02c; fill-opacity: 0.9; stroke: #2ca02c; stroke-opacity: 0.9"/>
    </g>
   </g>
   <g id="PathCollection_4">
    <defs>
     <path id="m94add96de5" d="M 0 3.162278 
C 0.838646 3.162278 1.643056 2.82908 2.236068 2.236068 
C 2.82908 1.643056 3.162278 0.838646 3.162278 0 
C 3.162278 -0.838646 2.82908 -1.643056 2.236068 -2.236068 
C 1.643056 -2.82908 0.838646 -3.162278 0 -3.162278 
C -0.838646 -3.162278 -1.643056 -2.82908 -2.236068 -2.236068 
C -2.82908 -1.643056 -3.162278 -0.838646 -3.162278 0 
C -3.162278 0.838646 -2.82908 1.643056 -2.236068 2.236068 
C -1.643056 2.82908 -0.838646 3.162278 0 3.162278 
z
" style="stroke: #d62728; stroke-opacity: 0.9"/>
    </defs>
    <g clip-path="url(#p5f136c3cb6)">
     <use xlink:href="#m94add96de5" x="138.707366" y="249.46188" style="fill: #d62728; fill-opacity: 0.9; stroke: #d62728; stroke-opacity: 0.9"/>
     <use xlink:href="#m94add96de5" x="154.576976" y="307.775528" style="fill: #d62728; fill-opacity: 0.9; stroke: #d62728; stroke-opacity: 0.9"/>
     <use xlink:href="#m94add96de5" x="170.446587" y="328.920552" style="fill: #d62728; fill-opacity: 0.9; stroke: #d62728; stroke-opacity: 0.9"/>
     <use xlink:href="#m94add96de5" x="186.316197" y="313.763528" style="fill: #d62728; fill-opacity: 0.9; stroke: #d62728; stroke-opacity: 0.9"/>
     <use xlink:href="#m94add96de5" x="202.185808" y="277.743285" style="fill: #d62728; fill-opacity: 0.9; stroke: #d62728; stroke-opacity: 0.9"/>
     <use xlink:href="#m94add96de5" x="218.055418" y="257.577109" style="fill: #d62728; fill-opacity: 0.9; stroke: #d62728; stroke-opacity: 0.9"/>
     <use xlink:href="#m94add96de5" x="233.925028" y="241.639204" style="fill: #d62728; fill-opacity: 0.9; stroke: #d62728; stroke-opacity: 0.9"/>
     <use xlink:href="#m94add96de5" x="249.794639" y="236.919763" style="fill: #d62728; fill-opacity: 0.9; stroke: #d62728; stroke-opacity: 0.9"/>
     <use xlink:href="#m94add96de5" x="265.664249" y="223.942347" style="fill: #d62728; fill-opacity: 0.9; stroke: #d62728; stroke-opacity: 0.9"/>
     <use xlink:href="#m94add96de5" x="281.53386" y="219.268349" style="fill: #d62728; fill-opacity: 0.9; stroke: #d62728; stroke-opacity: 0.9"/>
     <use xlink:href="#m94add96de5" x="297.40347" y="202.18227" style="fill: #d62728; fill-opacity: 0.9; stroke: #d62728; stroke-opacity: 0.9"/>
     <use xlink:href="#m94add96de5" x="313.27308" y="173.355153" style="fill: #d62728; fill-opacity: 0.9; stroke: #d62728; stroke-opacity: 0.9"/>
     <use xlink:href="#m94add96de5" x="503.708405" y="96.029078" style="fill: #d62728; fill-opacity: 0.9; stroke: #d62728; stroke-opacity: 0.9"/>
     <use xlink:href="#m94add96de5" x="519.578015" y="82.344212" style="fill: #d62728; fill-opacity: 0.9; stroke: #d62728; stroke-opacity: 0.9"/>
     <use xlink:href="#m94add96de5" x="535.447626" y="92.417084" style="fill: #d62728; fill-opacity: 0.9; stroke: #d62728; stroke-opacity: 0.9"/>
     <use xlink:href="#m94add96de5" x="551.317236" y="101.894474" style="fill: #d62728; fill-opacity: 0.9; stroke: #d62728; stroke-opacity: 0.9"/>
     <use xlink:href="#m94add96de5" x="567.186847" y="98.999281" style="fill: #d62728; fill-opacity: 0.9; stroke: #d62728; stroke-opacity: 0.9"/>
     <use xlink:href="#m94add96de5" x="583.056457" y="101.790143" style="fill: #d62728; fill-opacity: 0.9; stroke: #d62728; stroke-opacity: 0.9"/>
     <use xlink:href="#m94add96de5" x="598.926067" y="93.926656" style="fill: #d62728; fill-opacity: 0.9; stroke: #d62728; stroke-opacity: 0.9"/>
     <use xlink:href="#m94add96de5" x="614.795678" y="97.202929" style="fill: #d62728; fill-opacity: 0.9; stroke: #d62728; stroke-opacity: 0.9"/>
     <use xlink:href="#m94add96de5" x="630.665288" y="92.825898" style="fill: #d62728; fill-opacity: 0.9; stroke: #d62728; stroke-opacity: 0.9"/>
     <use xlink:href="#m94add96de5" x="646.534899" y="98.142827" style="fill: #d62728; fill-opacity: 0.9; stroke: #d62728; stroke-opacity: 0.9"/>
     <use xlink:href="#m94add96de5" x="662.404509" y="90.04683" style="fill: #d62728; fill-opacity: 0.9; stroke: #d62728; stroke-opacity: 0.9"/>
     <use xlink:href="#m94add96de5" x="678.274119" y="89.529092" style="fill: #d62728; fill-opacity: 0.9; stroke: #d62728; stroke-opacity: 0.9"/>
    </g>
   </g>
   <g id="matplotlib.axis_1">
    <g id="xtick_1">
     <g id="line2d_1">
      <path d="M 122.837756 464.896875 
L 122.837756 28.396875 
" clip-path="url(#p5f136c3cb6)" style="fill: none; stroke: #b0b0b0; stroke-opacity: 0.3; stroke-width: 0.8; stroke-linecap: square"/>
     </g>
     <g id="line2d_2">
      <defs>
       <path id="m5a53dc94cc" d="M 0 0 
L 0 -4 
" style="stroke: #000000"/>
      </defs>
      <g>
       <use xlink:href="#m5a53dc94cc" x="122.837756" y="464.896875" style="stroke: #000000"/>
      </g>
     </g>
     <g id="text_1">
      <!-- 0 -->
      <g transform="translate(118.384006 479.034687) scale(0.14 -0.14)">
       <defs>
        <path id="DejaVuSans-30" d="M 2034 4250 
Q 1547 4250 1301 3770 
Q 1056 3291 1056 2328 
Q 1056 1369 1301 889 
Q 1547 409 2034 409 
Q 2525 409 2770 889 
Q 3016 1369 3016 2328 
Q 3016 3291 2770 3770 
Q 2525 4250 2034 4250 
z
M 2034 4750 
Q 2819 4750 3233 4129 
Q 3647 3509 3647 2328 
Q 3647 1150 3233 529 
Q 2819 -91 2034 -91 
Q 1250 -91 836 529 
Q 422 1150 422 2328 
Q 422 3509 836 4129 
Q 1250 4750 2034 4750 
z
" transform="scale(0.015625)"/>
       </defs>
       <use xlink:href="#DejaVuSans-30"/>
      </g>
     </g>
    </g>
    <g id="xtick_2">
     <g id="line2d_3">
      <path d="M 154.576976 464.896875 
L 154.576976 28.396875 
" clip-path="url(#p5f136c3cb6)" style="fill: none; stroke: #b0b0b0; stroke-opacity: 0.3; stroke-width: 0.8; stroke-linecap: square"/>
     </g>
     <g id="line2d_4">
      <g>
       <use xlink:href="#m5a53dc94cc" x="154.576976" y="464.896875" style="stroke: #000000"/>
      </g>
     </g>
     <g id="text_2">
      <!-- 2 -->
      <g transform="translate(150.123226 479.034687) scale(0.14 -0.14)">
       <defs>
        <path id="DejaVuSans-32" d="M 1228 531 
L 3431 531 
L 3431 0 
L 469 0 
L 469 531 
Q 828 903 1448 1529 
Q 2069 2156 2228 2338 
Q 2531 2678 2651 2914 
Q 2772 3150 2772 3378 
Q 2772 3750 2511 3984 
Q 2250 4219 1831 4219 
Q 1534 4219 1204 4116 
Q 875 4013 500 3803 
L 500 4441 
Q 881 4594 1212 4672 
Q 1544 4750 1819 4750 
Q 2544 4750 2975 4387 
Q 3406 4025 3406 3419 
Q 3406 3131 3298 2873 
Q 3191 2616 2906 2266 
Q 2828 2175 2409 1742 
Q 1991 1309 1228 531 
z
" transform="scale(0.015625)"/>
       </defs>
       <use xlink:href="#DejaVuSans-32"/>
      </g>
     </g>
    </g>
    <g id="xtick_3">
     <g id="line2d_5">
      <path d="M 186.316197 464.896875 
L 186.316197 28.396875 
" clip-path="url(#p5f136c3cb6)" style="fill: none; stroke: #b0b0b0; stroke-opacity: 0.3; stroke-width: 0.8; stroke-linecap: square"/>
     </g>
     <g id="line2d_6">
      <g>
       <use xlink:href="#m5a53dc94cc" x="186.316197" y="464.896875" style="stroke: #000000"/>
      </g>
     </g>
     <g id="text_3">
      <!-- 4 -->
      <g transform="translate(181.862447 479.034687) scale(0.14 -0.14)">
       <defs>
        <path id="DejaVuSans-34" d="M 2419 4116 
L 825 1625 
L 2419 1625 
L 2419 4116 
z
M 2253 4666 
L 3047 4666 
L 3047 1625 
L 3713 1625 
L 3713 1100 
L 3047 1100 
L 3047 0 
L 2419 0 
L 2419 1100 
L 313 1100 
L 313 1709 
L 2253 4666 
z
" transform="scale(0.015625)"/>
       </defs>
       <use xlink:href="#DejaVuSans-34"/>
      </g>
     </g>
    </g>
    <g id="xtick_4">
     <g id="line2d_7">
      <path d="M 218.055418 464.896875 
L 218.055418 28.396875 
" clip-path="url(#p5f136c3cb6)" style="fill: none; stroke: #b0b0b0; stroke-opacity: 0.3; stroke-width: 0.8; stroke-linecap: square"/>
     </g>
     <g id="line2d_8">
      <g>
       <use xlink:href="#m5a53dc94cc" x="218.055418" y="464.896875" style="stroke: #000000"/>
      </g>
     </g>
     <g id="text_4">
      <!-- 6 -->
      <g transform="translate(213.601668 479.034687) scale(0.14 -0.14)">
       <defs>
        <path id="DejaVuSans-36" d="M 2113 2584 
Q 1688 2584 1439 2293 
Q 1191 2003 1191 1497 
Q 1191 994 1439 701 
Q 1688 409 2113 409 
Q 2538 409 2786 701 
Q 3034 994 3034 1497 
Q 3034 2003 2786 2293 
Q 2538 2584 2113 2584 
z
M 3366 4563 
L 3366 3988 
Q 3128 4100 2886 4159 
Q 2644 4219 2406 4219 
Q 1781 4219 1451 3797 
Q 1122 3375 1075 2522 
Q 1259 2794 1537 2939 
Q 1816 3084 2150 3084 
Q 2853 3084 3261 2657 
Q 3669 2231 3669 1497 
Q 3669 778 3244 343 
Q 2819 -91 2113 -91 
Q 1303 -91 875 529 
Q 447 1150 447 2328 
Q 447 3434 972 4092 
Q 1497 4750 2381 4750 
Q 2619 4750 2861 4703 
Q 3103 4656 3366 4563 
z
" transform="scale(0.015625)"/>
       </defs>
       <use xlink:href="#DejaVuSans-36"/>
      </g>
     </g>
    </g>
    <g id="xtick_5">
     <g id="line2d_9">
      <path d="M 249.794639 464.896875 
L 249.794639 28.396875 
" clip-path="url(#p5f136c3cb6)" style="fill: none; stroke: #b0b0b0; stroke-opacity: 0.3; stroke-width: 0.8; stroke-linecap: square"/>
     </g>
     <g id="line2d_10">
      <g>
       <use xlink:href="#m5a53dc94cc" x="249.794639" y="464.896875" style="stroke: #000000"/>
      </g>
     </g>
     <g id="text_5">
      <!-- 8 -->
      <g transform="translate(245.340889 479.034687) scale(0.14 -0.14)">
       <defs>
        <path id="DejaVuSans-38" d="M 2034 2216 
Q 1584 2216 1326 1975 
Q 1069 1734 1069 1313 
Q 1069 891 1326 650 
Q 1584 409 2034 409 
Q 2484 409 2743 651 
Q 3003 894 3003 1313 
Q 3003 1734 2745 1975 
Q 2488 2216 2034 2216 
z
M 1403 2484 
Q 997 2584 770 2862 
Q 544 3141 544 3541 
Q 544 4100 942 4425 
Q 1341 4750 2034 4750 
Q 2731 4750 3128 4425 
Q 3525 4100 3525 3541 
Q 3525 3141 3298 2862 
Q 3072 2584 2669 2484 
Q 3125 2378 3379 2068 
Q 3634 1759 3634 1313 
Q 3634 634 3220 271 
Q 2806 -91 2034 -91 
Q 1263 -91 848 271 
Q 434 634 434 1313 
Q 434 1759 690 2068 
Q 947 2378 1403 2484 
z
M 1172 3481 
Q 1172 3119 1398 2916 
Q 1625 2713 2034 2713 
Q 2441 2713 2670 2916 
Q 2900 3119 2900 3481 
Q 2900 3844 2670 4047 
Q 2441 4250 2034 4250 
Q 1625 4250 1398 4047 
Q 1172 3844 1172 3481 
z
" transform="scale(0.015625)"/>
       </defs>
       <use xlink:href="#DejaVuSans-38"/>
      </g>
     </g>
    </g>
    <g id="xtick_6">
     <g id="line2d_11">
      <path d="M 281.53386 464.896875 
L 281.53386 28.396875 
" clip-path="url(#p5f136c3cb6)" style="fill: none; stroke: #b0b0b0; stroke-opacity: 0.3; stroke-width: 0.8; stroke-linecap: square"/>
     </g>
     <g id="line2d_12">
      <g>
       <use xlink:href="#m5a53dc94cc" x="281.53386" y="464.896875" style="stroke: #000000"/>
      </g>
     </g>
     <g id="text_6">
      <!-- 10 -->
      <g transform="translate(272.62636 479.034687) scale(0.14 -0.14)">
       <defs>
        <path id="DejaVuSans-31" d="M 794 531 
L 1825 531 
L 1825 4091 
L 703 3866 
L 703 4441 
L 1819 4666 
L 2450 4666 
L 2450 531 
L 3481 531 
L 3481 0 
L 794 0 
L 794 531 
z
" transform="scale(0.015625)"/>
       </defs>
       <use xlink:href="#DejaVuSans-31"/>
       <use xlink:href="#DejaVuSans-30" x="63.623047"/>
      </g>
     </g>
    </g>
    <g id="xtick_7">
     <g id="line2d_13">
      <path d="M 313.27308 464.896875 
L 313.27308 28.396875 
" clip-path="url(#p5f136c3cb6)" style="fill: none; stroke: #b0b0b0; stroke-opacity: 0.3; stroke-width: 0.8; stroke-linecap: square"/>
     </g>
     <g id="line2d_14">
      <g>
       <use xlink:href="#m5a53dc94cc" x="313.27308" y="464.896875" style="stroke: #000000"/>
      </g>
     </g>
     <g id="text_7">
      <!-- 12 -->
      <g transform="translate(304.36558 479.034687) scale(0.14 -0.14)">
       <use xlink:href="#DejaVuSans-31"/>
       <use xlink:href="#DejaVuSans-32" x="63.623047"/>
      </g>
     </g>
    </g>
    <g id="xtick_8">
     <g id="line2d_15">
      <path d="M 345.012301 464.896875 
L 345.012301 28.396875 
" clip-path="url(#p5f136c3cb6)" style="fill: none; stroke: #b0b0b0; stroke-opacity: 0.3; stroke-width: 0.8; stroke-linecap: square"/>
     </g>
     <g id="line2d_16">
      <g>
       <use xlink:href="#m5a53dc94cc" x="345.012301" y="464.896875" style="stroke: #000000"/>
      </g>
     </g>
     <g id="text_8">
      <!-- 14 -->
      <g transform="translate(336.104801 479.034687) scale(0.14 -0.14)">
       <use xlink:href="#DejaVuSans-31"/>
       <use xlink:href="#DejaVuSans-34" x="63.623047"/>
      </g>
     </g>
    </g>
    <g id="xtick_9">
     <g id="line2d_17">
      <path d="M 376.751522 464.896875 
L 376.751522 28.396875 
" clip-path="url(#p5f136c3cb6)" style="fill: none; stroke: #b0b0b0; stroke-opacity: 0.3; stroke-width: 0.8; stroke-linecap: square"/>
     </g>
     <g id="line2d_18">
      <g>
       <use xlink:href="#m5a53dc94cc" x="376.751522" y="464.896875" style="stroke: #000000"/>
      </g>
     </g>
     <g id="text_9">
      <!-- 16 -->
      <g transform="translate(367.844022 479.034687) scale(0.14 -0.14)">
       <use xlink:href="#DejaVuSans-31"/>
       <use xlink:href="#DejaVuSans-36" x="63.623047"/>
      </g>
     </g>
    </g>
    <g id="xtick_10">
     <g id="line2d_19">
      <path d="M 408.490743 464.896875 
L 408.490743 28.396875 
" clip-path="url(#p5f136c3cb6)" style="fill: none; stroke: #b0b0b0; stroke-opacity: 0.3; stroke-width: 0.8; stroke-linecap: square"/>
     </g>
     <g id="line2d_20">
      <g>
       <use xlink:href="#m5a53dc94cc" x="408.490743" y="464.896875" style="stroke: #000000"/>
      </g>
     </g>
     <g id="text_10">
      <!-- 18 -->
      <g transform="translate(399.583243 479.034687) scale(0.14 -0.14)">
       <use xlink:href="#DejaVuSans-31"/>
       <use xlink:href="#DejaVuSans-38" x="63.623047"/>
      </g>
     </g>
    </g>
    <g id="xtick_11">
     <g id="line2d_21">
      <path d="M 440.229963 464.896875 
L 440.229963 28.396875 
" clip-path="url(#p5f136c3cb6)" style="fill: none; stroke: #b0b0b0; stroke-opacity: 0.3; stroke-width: 0.8; stroke-linecap: square"/>
     </g>
     <g id="line2d_22">
      <g>
       <use xlink:href="#m5a53dc94cc" x="440.229963" y="464.896875" style="stroke: #000000"/>
      </g>
     </g>
     <g id="text_11">
      <!-- 20 -->
      <g transform="translate(431.322463 479.034687) scale(0.14 -0.14)">
       <use xlink:href="#DejaVuSans-32"/>
       <use xlink:href="#DejaVuSans-30" x="63.623047"/>
      </g>
     </g>
    </g>
    <g id="xtick_12">
     <g id="line2d_23">
      <path d="M 471.969184 464.896875 
L 471.969184 28.396875 
" clip-path="url(#p5f136c3cb6)" style="fill: none; stroke: #b0b0b0; stroke-opacity: 0.3; stroke-width: 0.8; stroke-linecap: square"/>
     </g>
     <g id="line2d_24">
      <g>
       <use xlink:href="#m5a53dc94cc" x="471.969184" y="464.896875" style="stroke: #000000"/>
      </g>
     </g>
     <g id="text_12">
      <!-- 22 -->
      <g transform="translate(463.061684 479.034687) scale(0.14 -0.14)">
       <use xlink:href="#DejaVuSans-32"/>
       <use xlink:href="#DejaVuSans-32" x="63.623047"/>
      </g>
     </g>
    </g>
    <g id="xtick_13">
     <g id="line2d_25">
      <path d="M 503.708405 464.896875 
L 503.708405 28.396875 
" clip-path="url(#p5f136c3cb6)" style="fill: none; stroke: #b0b0b0; stroke-opacity: 0.3; stroke-width: 0.8; stroke-linecap: square"/>
     </g>
     <g id="line2d_26">
      <g>
       <use xlink:href="#m5a53dc94cc" x="503.708405" y="464.896875" style="stroke: #000000"/>
      </g>
     </g>
     <g id="text_13">
      <!-- 24 -->
      <g transform="translate(494.800905 479.034687) scale(0.14 -0.14)">
       <use xlink:href="#DejaVuSans-32"/>
       <use xlink:href="#DejaVuSans-34" x="63.623047"/>
      </g>
     </g>
    </g>
    <g id="xtick_14">
     <g id="line2d_27">
      <path d="M 535.447626 464.896875 
L 535.447626 28.396875 
" clip-path="url(#p5f136c3cb6)" style="fill: none; stroke: #b0b0b0; stroke-opacity: 0.3; stroke-width: 0.8; stroke-linecap: square"/>
     </g>
     <g id="line2d_28">
      <g>
       <use xlink:href="#m5a53dc94cc" x="535.447626" y="464.896875" style="stroke: #000000"/>
      </g>
     </g>
     <g id="text_14">
      <!-- 26 -->
      <g transform="translate(526.540126 479.034687) scale(0.14 -0.14)">
       <use xlink:href="#DejaVuSans-32"/>
       <use xlink:href="#DejaVuSans-36" x="63.623047"/>
      </g>
     </g>
    </g>
    <g id="xtick_15">
     <g id="line2d_29">
      <path d="M 567.186847 464.896875 
L 567.186847 28.396875 
" clip-path="url(#p5f136c3cb6)" style="fill: none; stroke: #b0b0b0; stroke-opacity: 0.3; stroke-width: 0.8; stroke-linecap: square"/>
     </g>
     <g id="line2d_30">
      <g>
       <use xlink:href="#m5a53dc94cc" x="567.186847" y="464.896875" style="stroke: #000000"/>
      </g>
     </g>
     <g id="text_15">
      <!-- 28 -->
      <g transform="translate(558.279347 479.034687) scale(0.14 -0.14)">
       <use xlink:href="#DejaVuSans-32"/>
       <use xlink:href="#DejaVuSans-38" x="63.623047"/>
      </g>
     </g>
    </g>
    <g id="xtick_16">
     <g id="line2d_31">
      <path d="M 598.926067 464.896875 
L 598.926067 28.396875 
" clip-path="url(#p5f136c3cb6)" style="fill: none; stroke: #b0b0b0; stroke-opacity: 0.3; stroke-width: 0.8; stroke-linecap: square"/>
     </g>
     <g id="line2d_32">
      <g>
       <use xlink:href="#m5a53dc94cc" x="598.926067" y="464.896875" style="stroke: #000000"/>
      </g>
     </g>
     <g id="text_16">
      <!-- 30 -->
      <g transform="translate(590.018567 479.034687) scale(0.14 -0.14)">
       <defs>
        <path id="DejaVuSans-33" d="M 2597 2516 
Q 3050 2419 3304 2112 
Q 3559 1806 3559 1356 
Q 3559 666 3084 287 
Q 2609 -91 1734 -91 
Q 1441 -91 1130 -33 
Q 819 25 488 141 
L 488 750 
Q 750 597 1062 519 
Q 1375 441 1716 441 
Q 2309 441 2620 675 
Q 2931 909 2931 1356 
Q 2931 1769 2642 2001 
Q 2353 2234 1838 2234 
L 1294 2234 
L 1294 2753 
L 1863 2753 
Q 2328 2753 2575 2939 
Q 2822 3125 2822 3475 
Q 2822 3834 2567 4026 
Q 2313 4219 1838 4219 
Q 1578 4219 1281 4162 
Q 984 4106 628 3988 
L 628 4550 
Q 988 4650 1302 4700 
Q 1616 4750 1894 4750 
Q 2613 4750 3031 4423 
Q 3450 4097 3450 3541 
Q 3450 3153 3228 2886 
Q 3006 2619 2597 2516 
z
" transform="scale(0.015625)"/>
       </defs>
       <use xlink:href="#DejaVuSans-33"/>
       <use xlink:href="#DejaVuSans-30" x="63.623047"/>
      </g>
     </g>
    </g>
    <g id="xtick_17">
     <g id="line2d_33">
      <path d="M 630.665288 464.896875 
L 630.665288 28.396875 
" clip-path="url(#p5f136c3cb6)" style="fill: none; stroke: #b0b0b0; stroke-opacity: 0.3; stroke-width: 0.8; stroke-linecap: square"/>
     </g>
     <g id="line2d_34">
      <g>
       <use xlink:href="#m5a53dc94cc" x="630.665288" y="464.896875" style="stroke: #000000"/>
      </g>
     </g>
     <g id="text_17">
      <!-- 32 -->
      <g transform="translate(621.757788 479.034687) scale(0.14 -0.14)">
       <use xlink:href="#DejaVuSans-33"/>
       <use xlink:href="#DejaVuSans-32" x="63.623047"/>
      </g>
     </g>
    </g>
    <g id="xtick_18">
     <g id="line2d_35">
      <path d="M 662.404509 464.896875 
L 662.404509 28.396875 
" clip-path="url(#p5f136c3cb6)" style="fill: none; stroke: #b0b0b0; stroke-opacity: 0.3; stroke-width: 0.8; stroke-linecap: square"/>
     </g>
     <g id="line2d_36">
      <g>
       <use xlink:href="#m5a53dc94cc" x="662.404509" y="464.896875" style="stroke: #000000"/>
      </g>
     </g>
     <g id="text_18">
      <!-- 34 -->
      <g transform="translate(653.497009 479.034687) scale(0.14 -0.14)">
       <use xlink:href="#DejaVuSans-33"/>
       <use xlink:href="#DejaVuSans-34" x="63.623047"/>
      </g>
     </g>
    </g>
    <g id="text_19">
     <!-- Month after the programme start -->
     <g transform="translate(251.167187 499.623437) scale(0.18 -0.18)">
      <defs>
       <path id="DejaVuSans-4d" d="M 628 4666 
L 1569 4666 
L 2759 1491 
L 3956 4666 
L 4897 4666 
L 4897 0 
L 4281 0 
L 4281 4097 
L 3078 897 
L 2444 897 
L 1241 4097 
L 1241 0 
L 628 0 
L 628 4666 
z
" transform="scale(0.015625)"/>
       <path id="DejaVuSans-6f" d="M 1959 3097 
Q 1497 3097 1228 2736 
Q 959 2375 959 1747 
Q 959 1119 1226 758 
Q 1494 397 1959 397 
Q 2419 397 2687 759 
Q 2956 1122 2956 1747 
Q 2956 2369 2687 2733 
Q 2419 3097 1959 3097 
z
M 1959 3584 
Q 2709 3584 3137 3096 
Q 3566 2609 3566 1747 
Q 3566 888 3137 398 
Q 2709 -91 1959 -91 
Q 1206 -91 779 398 
Q 353 888 353 1747 
Q 353 2609 779 3096 
Q 1206 3584 1959 3584 
z
" transform="scale(0.015625)"/>
       <path id="DejaVuSans-6e" d="M 3513 2113 
L 3513 0 
L 2938 0 
L 2938 2094 
Q 2938 2591 2744 2837 
Q 2550 3084 2163 3084 
Q 1697 3084 1428 2787 
Q 1159 2491 1159 1978 
L 1159 0 
L 581 0 
L 581 3500 
L 1159 3500 
L 1159 2956 
Q 1366 3272 1645 3428 
Q 1925 3584 2291 3584 
Q 2894 3584 3203 3211 
Q 3513 2838 3513 2113 
z
" transform="scale(0.015625)"/>
       <path id="DejaVuSans-74" d="M 1172 4494 
L 1172 3500 
L 2356 3500 
L 2356 3053 
L 1172 3053 
L 1172 1153 
Q 1172 725 1289 603 
Q 1406 481 1766 481 
L 2356 481 
L 2356 0 
L 1766 0 
Q 1100 0 847 248 
Q 594 497 594 1153 
L 594 3053 
L 172 3053 
L 172 3500 
L 594 3500 
L 594 4494 
L 1172 4494 
z
" transform="scale(0.015625)"/>
       <path id="DejaVuSans-68" d="M 3513 2113 
L 3513 0 
L 2938 0 
L 2938 2094 
Q 2938 2591 2744 2837 
Q 2550 3084 2163 3084 
Q 1697 3084 1428 2787 
Q 1159 2491 1159 1978 
L 1159 0 
L 581 0 
L 581 4863 
L 1159 4863 
L 1159 2956 
Q 1366 3272 1645 3428 
Q 1925 3584 2291 3584 
Q 2894 3584 3203 3211 
Q 3513 2838 3513 2113 
z
" transform="scale(0.015625)"/>
       <path id="DejaVuSans-20" transform="scale(0.015625)"/>
       <path id="DejaVuSans-61" d="M 2194 1759 
Q 1497 1759 1228 1600 
Q 959 1441 959 1056 
Q 959 750 1161 570 
Q 1363 391 1709 391 
Q 2188 391 2477 730 
Q 2766 1069 2766 1631 
L 2766 1759 
L 2194 1759 
z
M 3341 1997 
L 3341 0 
L 2766 0 
L 2766 531 
Q 2569 213 2275 61 
Q 1981 -91 1556 -91 
Q 1019 -91 701 211 
Q 384 513 384 1019 
Q 384 1609 779 1909 
Q 1175 2209 1959 2209 
L 2766 2209 
L 2766 2266 
Q 2766 2663 2505 2880 
Q 2244 3097 1772 3097 
Q 1472 3097 1187 3025 
Q 903 2953 641 2809 
L 641 3341 
Q 956 3463 1253 3523 
Q 1550 3584 1831 3584 
Q 2591 3584 2966 3190 
Q 3341 2797 3341 1997 
z
" transform="scale(0.015625)"/>
       <path id="DejaVuSans-66" d="M 2375 4863 
L 2375 4384 
L 1825 4384 
Q 1516 4384 1395 4259 
Q 1275 4134 1275 3809 
L 1275 3500 
L 2222 3500 
L 2222 3053 
L 1275 3053 
L 1275 0 
L 697 0 
L 697 3053 
L 147 3053 
L 147 3500 
L 697 3500 
L 697 3744 
Q 697 4328 969 4595 
Q 1241 4863 1831 4863 
L 2375 4863 
z
" transform="scale(0.015625)"/>
       <path id="DejaVuSans-65" d="M 3597 1894 
L 3597 1613 
L 953 1613 
Q 991 1019 1311 708 
Q 1631 397 2203 397 
Q 2534 397 2845 478 
Q 3156 559 3463 722 
L 3463 178 
Q 3153 47 2828 -22 
Q 2503 -91 2169 -91 
Q 1331 -91 842 396 
Q 353 884 353 1716 
Q 353 2575 817 3079 
Q 1281 3584 2069 3584 
Q 2775 3584 3186 3129 
Q 3597 2675 3597 1894 
z
M 3022 2063 
Q 3016 2534 2758 2815 
Q 2500 3097 2075 3097 
Q 1594 3097 1305 2825 
Q 1016 2553 972 2059 
L 3022 2063 
z
" transform="scale(0.015625)"/>
       <path id="DejaVuSans-72" d="M 2631 2963 
Q 2534 3019 2420 3045 
Q 2306 3072 2169 3072 
Q 1681 3072 1420 2755 
Q 1159 2438 1159 1844 
L 1159 0 
L 581 0 
L 581 3500 
L 1159 3500 
L 1159 2956 
Q 1341 3275 1631 3429 
Q 1922 3584 2338 3584 
Q 2397 3584 2469 3576 
Q 2541 3569 2628 3553 
L 2631 2963 
z
" transform="scale(0.015625)"/>
       <path id="DejaVuSans-70" d="M 1159 525 
L 1159 -1331 
L 581 -1331 
L 581 3500 
L 1159 3500 
L 1159 2969 
Q 1341 3281 1617 3432 
Q 1894 3584 2278 3584 
Q 2916 3584 3314 3078 
Q 3713 2572 3713 1747 
Q 3713 922 3314 415 
Q 2916 -91 2278 -91 
Q 1894 -91 1617 61 
Q 1341 213 1159 525 
z
M 3116 1747 
Q 3116 2381 2855 2742 
Q 2594 3103 2138 3103 
Q 1681 3103 1420 2742 
Q 1159 2381 1159 1747 
Q 1159 1113 1420 752 
Q 1681 391 2138 391 
Q 2594 391 2855 752 
Q 3116 1113 3116 1747 
z
" transform="scale(0.015625)"/>
       <path id="DejaVuSans-67" d="M 2906 1791 
Q 2906 2416 2648 2759 
Q 2391 3103 1925 3103 
Q 1463 3103 1205 2759 
Q 947 2416 947 1791 
Q 947 1169 1205 825 
Q 1463 481 1925 481 
Q 2391 481 2648 825 
Q 2906 1169 2906 1791 
z
M 3481 434 
Q 3481 -459 3084 -895 
Q 2688 -1331 1869 -1331 
Q 1566 -1331 1297 -1286 
Q 1028 -1241 775 -1147 
L 775 -588 
Q 1028 -725 1275 -790 
Q 1522 -856 1778 -856 
Q 2344 -856 2625 -561 
Q 2906 -266 2906 331 
L 2906 616 
Q 2728 306 2450 153 
Q 2172 0 1784 0 
Q 1141 0 747 490 
Q 353 981 353 1791 
Q 353 2603 747 3093 
Q 1141 3584 1784 3584 
Q 2172 3584 2450 3431 
Q 2728 3278 2906 2969 
L 2906 3500 
L 3481 3500 
L 3481 434 
z
" transform="scale(0.015625)"/>
       <path id="DejaVuSans-6d" d="M 3328 2828 
Q 3544 3216 3844 3400 
Q 4144 3584 4550 3584 
Q 5097 3584 5394 3201 
Q 5691 2819 5691 2113 
L 5691 0 
L 5113 0 
L 5113 2094 
Q 5113 2597 4934 2840 
Q 4756 3084 4391 3084 
Q 3944 3084 3684 2787 
Q 3425 2491 3425 1978 
L 3425 0 
L 2847 0 
L 2847 2094 
Q 2847 2600 2669 2842 
Q 2491 3084 2119 3084 
Q 1678 3084 1418 2786 
Q 1159 2488 1159 1978 
L 1159 0 
L 581 0 
L 581 3500 
L 1159 3500 
L 1159 2956 
Q 1356 3278 1631 3431 
Q 1906 3584 2284 3584 
Q 2666 3584 2933 3390 
Q 3200 3197 3328 2828 
z
" transform="scale(0.015625)"/>
       <path id="DejaVuSans-73" d="M 2834 3397 
L 2834 2853 
Q 2591 2978 2328 3040 
Q 2066 3103 1784 3103 
Q 1356 3103 1142 2972 
Q 928 2841 928 2578 
Q 928 2378 1081 2264 
Q 1234 2150 1697 2047 
L 1894 2003 
Q 2506 1872 2764 1633 
Q 3022 1394 3022 966 
Q 3022 478 2636 193 
Q 2250 -91 1575 -91 
Q 1294 -91 989 -36 
Q 684 19 347 128 
L 347 722 
Q 666 556 975 473 
Q 1284 391 1588 391 
Q 1994 391 2212 530 
Q 2431 669 2431 922 
Q 2431 1156 2273 1281 
Q 2116 1406 1581 1522 
L 1381 1569 
Q 847 1681 609 1914 
Q 372 2147 372 2553 
Q 372 3047 722 3315 
Q 1072 3584 1716 3584 
Q 2034 3584 2315 3537 
Q 2597 3491 2834 3397 
z
" transform="scale(0.015625)"/>
      </defs>
      <use xlink:href="#DejaVuSans-4d"/>
      <use xlink:href="#DejaVuSans-6f" x="86.279297"/>
      <use xlink:href="#DejaVuSans-6e" x="147.460938"/>
      <use xlink:href="#DejaVuSans-74" x="210.839844"/>
      <use xlink:href="#DejaVuSans-68" x="250.048828"/>
      <use xlink:href="#DejaVuSans-20" x="313.427734"/>
      <use xlink:href="#DejaVuSans-61" x="345.214844"/>
      <use xlink:href="#DejaVuSans-66" x="406.494141"/>
      <use xlink:href="#DejaVuSans-74" x="439.949219"/>
      <use xlink:href="#DejaVuSans-65" x="479.158203"/>
      <use xlink:href="#DejaVuSans-72" x="540.681641"/>
      <use xlink:href="#DejaVuSans-20" x="581.794922"/>
      <use xlink:href="#DejaVuSans-74" x="613.582031"/>
      <use xlink:href="#DejaVuSans-68" x="652.791016"/>
      <use xlink:href="#DejaVuSans-65" x="716.169922"/>
      <use xlink:href="#DejaVuSans-20" x="777.693359"/>
      <use xlink:href="#DejaVuSans-70" x="809.480469"/>
      <use xlink:href="#DejaVuSans-72" x="872.957031"/>
      <use xlink:href="#DejaVuSans-6f" x="911.820312"/>
      <use xlink:href="#DejaVuSans-67" x="973.001953"/>
      <use xlink:href="#DejaVuSans-72" x="1036.478516"/>
      <use xlink:href="#DejaVuSans-61" x="1077.591797"/>
      <use xlink:href="#DejaVuSans-6d" x="1138.871094"/>
      <use xlink:href="#DejaVuSans-6d" x="1236.283203"/>
      <use xlink:href="#DejaVuSans-65" x="1333.695312"/>
      <use xlink:href="#DejaVuSans-20" x="1395.21875"/>
      <use xlink:href="#DejaVuSans-73" x="1427.005859"/>
      <use xlink:href="#DejaVuSans-74" x="1479.105469"/>
      <use xlink:href="#DejaVuSans-61" x="1518.314453"/>
      <use xlink:href="#DejaVuSans-72" x="1579.59375"/>
      <use xlink:href="#DejaVuSans-74" x="1620.707031"/>
     </g>
    </g>
   </g>
   <g id="matplotlib.axis_2">
    <g id="ytick_1">
     <g id="line2d_37">
      <path d="M 95.065938 413.23176 
L 706.045937 413.23176 
" clip-path="url(#p5f136c3cb6)" style="fill: none; stroke: #b0b0b0; stroke-opacity: 0.3; stroke-width: 0.8; stroke-linecap: square"/>
     </g>
     <g id="line2d_38">
      <defs>
       <path id="m3ab72249bc" d="M 0 0 
L 4 0 
" style="stroke: #000000"/>
      </defs>
      <g>
       <use xlink:href="#m3ab72249bc" x="95.065938" y="413.23176" style="stroke: #000000"/>
      </g>
     </g>
     <g id="text_20">
      <!-- -1000.00 -->
      <g transform="translate(28.620625 418.550666) scale(0.14 -0.14)">
       <defs>
        <path id="DejaVuSans-2d" d="M 313 2009 
L 1997 2009 
L 1997 1497 
L 313 1497 
L 313 2009 
z
" transform="scale(0.015625)"/>
        <path id="DejaVuSans-2e" d="M 684 794 
L 1344 794 
L 1344 0 
L 684 0 
L 684 794 
z
" transform="scale(0.015625)"/>
       </defs>
       <use xlink:href="#DejaVuSans-2d"/>
       <use xlink:href="#DejaVuSans-31" x="36.083984"/>
       <use xlink:href="#DejaVuSans-30" x="99.707031"/>
       <use xlink:href="#DejaVuSans-30" x="163.330078"/>
       <use xlink:href="#DejaVuSans-30" x="226.953125"/>
       <use xlink:href="#DejaVuSans-2e" x="290.576172"/>
       <use xlink:href="#DejaVuSans-30" x="322.363281"/>
       <use xlink:href="#DejaVuSans-30" x="385.986328"/>
      </g>
     </g>
    </g>
    <g id="ytick_2">
     <g id="line2d_39">
      <path d="M 95.065938 359.284423 
L 706.045937 359.284423 
" clip-path="url(#p5f136c3cb6)" style="fill: none; stroke: #b0b0b0; stroke-opacity: 0.3; stroke-width: 0.8; stroke-linecap: square"/>
     </g>
     <g id="line2d_40">
      <g>
       <use xlink:href="#m3ab72249bc" x="95.065938" y="359.284423" style="stroke: #000000"/>
      </g>
     </g>
     <g id="text_21">
      <!-- -800.00 -->
      <g transform="translate(37.528125 364.603329) scale(0.14 -0.14)">
       <use xlink:href="#DejaVuSans-2d"/>
       <use xlink:href="#DejaVuSans-38" x="36.083984"/>
       <use xlink:href="#DejaVuSans-30" x="99.707031"/>
       <use xlink:href="#DejaVuSans-30" x="163.330078"/>
       <use xlink:href="#DejaVuSans-2e" x="226.953125"/>
       <use xlink:href="#DejaVuSans-30" x="258.740234"/>
       <use xlink:href="#DejaVuSans-30" x="322.363281"/>
      </g>
     </g>
    </g>
    <g id="ytick_3">
     <g id="line2d_41">
      <path d="M 95.065938 305.337085 
L 706.045937 305.337085 
" clip-path="url(#p5f136c3cb6)" style="fill: none; stroke: #b0b0b0; stroke-opacity: 0.3; stroke-width: 0.8; stroke-linecap: square"/>
     </g>
     <g id="line2d_42">
      <g>
       <use xlink:href="#m3ab72249bc" x="95.065938" y="305.337085" style="stroke: #000000"/>
      </g>
     </g>
     <g id="text_22">
      <!-- -600.00 -->
      <g transform="translate(37.528125 310.655992) scale(0.14 -0.14)">
       <use xlink:href="#DejaVuSans-2d"/>
       <use xlink:href="#DejaVuSans-36" x="36.083984"/>
       <use xlink:href="#DejaVuSans-30" x="99.707031"/>
       <use xlink:href="#DejaVuSans-30" x="163.330078"/>
       <use xlink:href="#DejaVuSans-2e" x="226.953125"/>
       <use xlink:href="#DejaVuSans-30" x="258.740234"/>
       <use xlink:href="#DejaVuSans-30" x="322.363281"/>
      </g>
     </g>
    </g>
    <g id="ytick_4">
     <g id="line2d_43">
      <path d="M 95.065938 251.389748 
L 706.045937 251.389748 
" clip-path="url(#p5f136c3cb6)" style="fill: none; stroke: #b0b0b0; stroke-opacity: 0.3; stroke-width: 0.8; stroke-linecap: square"/>
     </g>
     <g id="line2d_44">
      <g>
       <use xlink:href="#m3ab72249bc" x="95.065938" y="251.389748" style="stroke: #000000"/>
      </g>
     </g>
     <g id="text_23">
      <!-- -400.00 -->
      <g transform="translate(37.528125 256.708655) scale(0.14 -0.14)">
       <use xlink:href="#DejaVuSans-2d"/>
       <use xlink:href="#DejaVuSans-34" x="36.083984"/>
       <use xlink:href="#DejaVuSans-30" x="99.707031"/>
       <use xlink:href="#DejaVuSans-30" x="163.330078"/>
       <use xlink:href="#DejaVuSans-2e" x="226.953125"/>
       <use xlink:href="#DejaVuSans-30" x="258.740234"/>
       <use xlink:href="#DejaVuSans-30" x="322.363281"/>
      </g>
     </g>
    </g>
    <g id="ytick_5">
     <g id="line2d_45">
      <path d="M 95.065938 197.442411 
L 706.045937 197.442411 
" clip-path="url(#p5f136c3cb6)" style="fill: none; stroke: #b0b0b0; stroke-opacity: 0.3; stroke-width: 0.8; stroke-linecap: square"/>
     </g>
     <g id="line2d_46">
      <g>
       <use xlink:href="#m3ab72249bc" x="95.065938" y="197.442411" style="stroke: #000000"/>
      </g>
     </g>
     <g id="text_24">
      <!-- -200.00 -->
      <g transform="translate(37.528125 202.761318) scale(0.14 -0.14)">
       <use xlink:href="#DejaVuSans-2d"/>
       <use xlink:href="#DejaVuSans-32" x="36.083984"/>
       <use xlink:href="#DejaVuSans-30" x="99.707031"/>
       <use xlink:href="#DejaVuSans-30" x="163.330078"/>
       <use xlink:href="#DejaVuSans-2e" x="226.953125"/>
       <use xlink:href="#DejaVuSans-30" x="258.740234"/>
       <use xlink:href="#DejaVuSans-30" x="322.363281"/>
      </g>
     </g>
    </g>
    <g id="ytick_6">
     <g id="line2d_47">
      <path d="M 95.065938 143.495074 
L 706.045937 143.495074 
" clip-path="url(#p5f136c3cb6)" style="fill: none; stroke: #b0b0b0; stroke-opacity: 0.3; stroke-width: 0.8; stroke-linecap: square"/>
     </g>
     <g id="line2d_48">
      <g>
       <use xlink:href="#m3ab72249bc" x="95.065938" y="143.495074" style="stroke: #000000"/>
      </g>
     </g>
     <g id="text_25">
      <!-- 0.00 -->
      <g transform="translate(60.394063 148.813981) scale(0.14 -0.14)">
       <use xlink:href="#DejaVuSans-30"/>
       <use xlink:href="#DejaVuSans-2e" x="63.623047"/>
       <use xlink:href="#DejaVuSans-30" x="95.410156"/>
       <use xlink:href="#DejaVuSans-30" x="159.033203"/>
      </g>
     </g>
    </g>
    <g id="ytick_7">
     <g id="line2d_49">
      <path d="M 95.065938 89.547737 
L 706.045937 89.547737 
" clip-path="url(#p5f136c3cb6)" style="fill: none; stroke: #b0b0b0; stroke-opacity: 0.3; stroke-width: 0.8; stroke-linecap: square"/>
     </g>
     <g id="line2d_50">
      <g>
       <use xlink:href="#m3ab72249bc" x="95.065938" y="89.547737" style="stroke: #000000"/>
      </g>
     </g>
     <g id="text_26">
      <!-- 200.00 -->
      <g transform="translate(42.579062 94.866644) scale(0.14 -0.14)">
       <use xlink:href="#DejaVuSans-32"/>
       <use xlink:href="#DejaVuSans-30" x="63.623047"/>
       <use xlink:href="#DejaVuSans-30" x="127.246094"/>
       <use xlink:href="#DejaVuSans-2e" x="190.869141"/>
       <use xlink:href="#DejaVuSans-30" x="222.65625"/>
       <use xlink:href="#DejaVuSans-30" x="286.279297"/>
      </g>
     </g>
    </g>
    <g id="ytick_8">
     <g id="line2d_51">
      <path d="M 95.065938 35.6004 
L 706.045937 35.6004 
" clip-path="url(#p5f136c3cb6)" style="fill: none; stroke: #b0b0b0; stroke-opacity: 0.3; stroke-width: 0.8; stroke-linecap: square"/>
     </g>
     <g id="line2d_52">
      <g>
       <use xlink:href="#m3ab72249bc" x="95.065938" y="35.6004" style="stroke: #000000"/>
      </g>
     </g>
     <g id="text_27">
      <!-- 400.00 -->
      <g transform="translate(42.579062 40.919307) scale(0.14 -0.14)">
       <use xlink:href="#DejaVuSans-34"/>
       <use xlink:href="#DejaVuSans-30" x="63.623047"/>
       <use xlink:href="#DejaVuSans-30" x="127.246094"/>
       <use xlink:href="#DejaVuSans-2e" x="190.869141"/>
       <use xlink:href="#DejaVuSans-30" x="222.65625"/>
       <use xlink:href="#DejaVuSans-30" x="286.279297"/>
      </g>
     </g>
    </g>
    <g id="text_28">
     <!-- ATE -->
     <g transform="translate(20.877187 263.289844) rotate(-90) scale(0.18 -0.18)">
      <defs>
       <path id="DejaVuSans-41" d="M 2188 4044 
L 1331 1722 
L 3047 1722 
L 2188 4044 
z
M 1831 4666 
L 2547 4666 
L 4325 0 
L 3669 0 
L 3244 1197 
L 1141 1197 
L 716 0 
L 50 0 
L 1831 4666 
z
" transform="scale(0.015625)"/>
       <path id="DejaVuSans-54" d="M -19 4666 
L 3928 4666 
L 3928 4134 
L 2272 4134 
L 2272 0 
L 1638 0 
L 1638 4134 
L -19 4134 
L -19 4666 
z
" transform="scale(0.015625)"/>
       <path id="DejaVuSans-45" d="M 628 4666 
L 3578 4666 
L 3578 4134 
L 1259 4134 
L 1259 2753 
L 3481 2753 
L 3481 2222 
L 1259 2222 
L 1259 531 
L 3634 531 
L 3634 0 
L 628 0 
L 628 4666 
z
" transform="scale(0.015625)"/>
      </defs>
      <use xlink:href="#DejaVuSans-41"/>
      <use xlink:href="#DejaVuSans-54" x="60.658203"/>
      <use xlink:href="#DejaVuSans-45" x="121.742188"/>
     </g>
    </g>
   </g>
   <g id="line2d_53">
    <path d="M 122.837756 143.495074 
L 138.707366 330.336196 
L 154.576976 417.291517 
L 170.446587 437.923206 
L 186.316197 431.9092 
L 202.185808 395.572272 
L 218.055418 372.26599 
L 233.925028 360.710106 
L 249.794639 349.853328 
L 265.664249 325.786487 
L 281.53386 313.382307 
L 297.40347 290.717638 
L 313.27308 281.7063 
L 329.142691 266.409971 
L 345.012301 271.203874 
L 360.881912 273.082596 
L 376.751522 259.392206 
L 392.621132 246.049975 
L 408.490743 229.851583 
L 424.360353 219.613217 
L 440.229963 219.115937 
L 456.099574 208.735217 
L 471.969184 204.832539 
L 487.838795 189.610644 
L 503.708405 183.154529 
L 519.578015 187.167876 
L 535.447626 201.081205 
L 551.317236 201.057994 
L 567.186847 205.961119 
L 583.056457 203.509319 
L 598.926067 194.51854 
L 614.795678 193.436534 
L 630.665288 188.79755 
L 646.534899 189.669952 
L 662.404509 180.875476 
L 678.274119 182.594467 
" clip-path="url(#p5f136c3cb6)" style="fill: none; stroke-dasharray: 1.5,2.475; stroke-dashoffset: 0; stroke: #1f77b4; stroke-width: 1.5"/>
   </g>
   <g id="line2d_54">
    <path d="M 122.837756 143.495074 
L 138.707366 332.666873 
L 154.576976 369.492096 
L 170.446587 399.018589 
L 186.316197 410.087149 
L 202.185808 375.533488 
L 218.055418 357.520315 
L 233.925028 341.616529 
L 249.794639 335.225426 
L 265.664249 317.186712 
L 281.53386 307.51959 
L 297.40347 302.231539 
L 313.27308 276.684577 
L 329.142691 243.551458 
L 345.012301 248.379191 
L 360.881912 242.142179 
L 376.751522 216.168711 
L 392.621132 195.858214 
L 408.490743 190.256728 
L 424.360353 198.309942 
L 440.229963 210.09171 
L 456.099574 201.630183 
L 471.969184 194.086482 
L 487.838795 204.570049 
L 503.708405 198.258986 
L 519.578015 196.305091 
L 535.447626 211.707695 
L 551.317236 221.26901 
L 567.186847 230.286953 
L 583.056457 215.45739 
L 598.926067 205.460766 
L 614.795678 200.660231 
L 630.665288 172.743519 
L 646.534899 175.915933 
L 662.404509 177.820049 
L 678.274119 182.764055 
" clip-path="url(#p5f136c3cb6)" style="fill: none; stroke-dasharray: 1.5,2.475; stroke-dashoffset: 0; stroke: #ff7f0e; stroke-width: 1.5"/>
   </g>
   <g id="line2d_55">
    <path d="M 122.837756 143.495074 
L 138.707366 330.437149 
L 154.576976 400.85502 
L 170.446587 431.668491 
L 186.316197 414.125327 
L 202.185808 376.514489 
L 218.055418 350.193565 
L 233.925028 320.231466 
L 249.794639 314.904576 
L 265.664249 309.155624 
L 281.53386 283.628484 
L 297.40347 267.623908 
L 313.27308 245.690944 
L 329.142691 245.004117 
L 345.012301 252.160245 
L 360.881912 237.587392 
L 376.751522 250.882446 
L 392.621132 225.821828 
L 408.490743 215.511413 
L 424.360353 200.560407 
L 440.229963 198.57844 
L 456.099574 182.151639 
L 471.969184 168.331775 
L 487.838795 168.867718 
L 503.708405 147.440772 
L 519.578015 147.343738 
L 535.447626 169.05144 
L 551.317236 158.152718 
L 567.186847 171.082216 
L 583.056457 166.844711 
L 598.926067 164.022455 
L 614.795678 158.489636 
L 630.665288 152.045683 
L 646.534899 147.555156 
L 662.404509 153.2075 
L 678.274119 152.482838 
" clip-path="url(#p5f136c3cb6)" style="fill: none; stroke-dasharray: 1.5,2.475; stroke-dashoffset: 0; stroke: #2ca02c; stroke-width: 1.5"/>
   </g>
   <g id="line2d_56">
    <path d="M 122.837756 143.495074 
L 138.707366 249.46188 
L 154.576976 307.775528 
L 170.446587 328.920552 
L 186.316197 313.763528 
L 202.185808 277.743285 
L 218.055418 257.577109 
L 233.925028 241.639204 
L 249.794639 236.919763 
L 265.664249 223.942347 
L 281.53386 219.268349 
L 297.40347 202.18227 
L 313.27308 173.355153 
L 329.142691 158.761056 
L 345.012301 167.536219 
L 360.881912 166.716135 
L 376.751522 160.364124 
L 392.621132 155.452563 
L 408.490743 155.696591 
L 424.360353 150.718063 
L 440.229963 158.957083 
L 456.099574 148.730761 
L 471.969184 144.28573 
L 487.838795 126.537042 
L 503.708405 96.029078 
L 519.578015 82.344212 
L 535.447626 92.417084 
L 551.317236 101.894474 
L 567.186847 98.999281 
L 583.056457 101.790143 
L 598.926067 93.926656 
L 614.795678 97.202929 
L 630.665288 92.825898 
L 646.534899 98.142827 
L 662.404509 90.04683 
L 678.274119 89.529092 
" clip-path="url(#p5f136c3cb6)" style="fill: none; stroke-dasharray: 1.5,2.475; stroke-dashoffset: 0; stroke: #d62728; stroke-width: 1.5"/>
   </g>
   <g id="line2d_57">
    <path d="M 95.065938 143.495074 
L 706.045937 143.495074 
" clip-path="url(#p5f136c3cb6)" style="fill: none; stroke-dasharray: 2.96,1.28; stroke-dashoffset: 0; stroke: #000000; stroke-opacity: 0.8; stroke-width: 0.8"/>
   </g>
   <g id="patch_3">
    <path d="M 95.065938 464.896875 
L 95.065938 28.396875 
" style="fill: none; stroke: #000000; stroke-width: 0.8; stroke-linejoin: miter; stroke-linecap: square"/>
   </g>
   <g id="patch_4">
    <path d="M 706.045937 464.896875 
L 706.045937 28.396875 
" style="fill: none; stroke: #000000; stroke-width: 0.8; stroke-linejoin: miter; stroke-linecap: square"/>
   </g>
   <g id="patch_5">
    <path d="M 95.065938 464.896875 
L 706.045937 464.896875 
" style="fill: none; stroke: #000000; stroke-width: 0.8; stroke-linejoin: miter; stroke-linecap: square"/>
   </g>
   <g id="patch_6">
    <path d="M 95.065938 28.396875 
L 706.045937 28.396875 
" style="fill: none; stroke: #000000; stroke-width: 0.8; stroke-linejoin: miter; stroke-linecap: square"/>
   </g>
   <g id="text_29">
    <!-- Earnings PERM -->
    <g transform="translate(315.97625 22.396875) scale(0.2 -0.2)">
     <defs>
      <path id="DejaVuSans-Bold-45" d="M 588 4666 
L 3834 4666 
L 3834 3756 
L 1791 3756 
L 1791 2888 
L 3713 2888 
L 3713 1978 
L 1791 1978 
L 1791 909 
L 3903 909 
L 3903 0 
L 588 0 
L 588 4666 
z
" transform="scale(0.015625)"/>
      <path id="DejaVuSans-Bold-61" d="M 2106 1575 
Q 1756 1575 1579 1456 
Q 1403 1338 1403 1106 
Q 1403 894 1545 773 
Q 1688 653 1941 653 
Q 2256 653 2472 879 
Q 2688 1106 2688 1447 
L 2688 1575 
L 2106 1575 
z
M 3816 1997 
L 3816 0 
L 2688 0 
L 2688 519 
Q 2463 200 2181 54 
Q 1900 -91 1497 -91 
Q 953 -91 614 226 
Q 275 544 275 1050 
Q 275 1666 698 1953 
Q 1122 2241 2028 2241 
L 2688 2241 
L 2688 2328 
Q 2688 2594 2478 2717 
Q 2269 2841 1825 2841 
Q 1466 2841 1156 2769 
Q 847 2697 581 2553 
L 581 3406 
Q 941 3494 1303 3539 
Q 1666 3584 2028 3584 
Q 2975 3584 3395 3211 
Q 3816 2838 3816 1997 
z
" transform="scale(0.015625)"/>
      <path id="DejaVuSans-Bold-72" d="M 3138 2547 
Q 2991 2616 2845 2648 
Q 2700 2681 2553 2681 
Q 2122 2681 1889 2404 
Q 1656 2128 1656 1613 
L 1656 0 
L 538 0 
L 538 3500 
L 1656 3500 
L 1656 2925 
Q 1872 3269 2151 3426 
Q 2431 3584 2822 3584 
Q 2878 3584 2943 3579 
Q 3009 3575 3134 3559 
L 3138 2547 
z
" transform="scale(0.015625)"/>
      <path id="DejaVuSans-Bold-6e" d="M 4056 2131 
L 4056 0 
L 2931 0 
L 2931 347 
L 2931 1631 
Q 2931 2084 2911 2256 
Q 2891 2428 2841 2509 
Q 2775 2619 2662 2680 
Q 2550 2741 2406 2741 
Q 2056 2741 1856 2470 
Q 1656 2200 1656 1722 
L 1656 0 
L 538 0 
L 538 3500 
L 1656 3500 
L 1656 2988 
Q 1909 3294 2193 3439 
Q 2478 3584 2822 3584 
Q 3428 3584 3742 3212 
Q 4056 2841 4056 2131 
z
" transform="scale(0.015625)"/>
      <path id="DejaVuSans-Bold-69" d="M 538 3500 
L 1656 3500 
L 1656 0 
L 538 0 
L 538 3500 
z
M 538 4863 
L 1656 4863 
L 1656 3950 
L 538 3950 
L 538 4863 
z
" transform="scale(0.015625)"/>
      <path id="DejaVuSans-Bold-67" d="M 2919 594 
Q 2688 288 2409 144 
Q 2131 0 1766 0 
Q 1125 0 706 504 
Q 288 1009 288 1791 
Q 288 2575 706 3076 
Q 1125 3578 1766 3578 
Q 2131 3578 2409 3434 
Q 2688 3291 2919 2981 
L 2919 3500 
L 4044 3500 
L 4044 353 
Q 4044 -491 3511 -936 
Q 2978 -1381 1966 -1381 
Q 1638 -1381 1331 -1331 
Q 1025 -1281 716 -1178 
L 716 -306 
Q 1009 -475 1290 -558 
Q 1572 -641 1856 -641 
Q 2406 -641 2662 -400 
Q 2919 -159 2919 353 
L 2919 594 
z
M 2181 2772 
Q 1834 2772 1640 2515 
Q 1447 2259 1447 1791 
Q 1447 1309 1634 1061 
Q 1822 813 2181 813 
Q 2531 813 2725 1069 
Q 2919 1325 2919 1791 
Q 2919 2259 2725 2515 
Q 2531 2772 2181 2772 
z
" transform="scale(0.015625)"/>
      <path id="DejaVuSans-Bold-73" d="M 3272 3391 
L 3272 2541 
Q 2913 2691 2578 2766 
Q 2244 2841 1947 2841 
Q 1628 2841 1473 2761 
Q 1319 2681 1319 2516 
Q 1319 2381 1436 2309 
Q 1553 2238 1856 2203 
L 2053 2175 
Q 2913 2066 3209 1816 
Q 3506 1566 3506 1031 
Q 3506 472 3093 190 
Q 2681 -91 1863 -91 
Q 1516 -91 1145 -36 
Q 775 19 384 128 
L 384 978 
Q 719 816 1070 734 
Q 1422 653 1784 653 
Q 2113 653 2278 743 
Q 2444 834 2444 1013 
Q 2444 1163 2330 1236 
Q 2216 1309 1875 1350 
L 1678 1375 
Q 931 1469 631 1722 
Q 331 1975 331 2491 
Q 331 3047 712 3315 
Q 1094 3584 1881 3584 
Q 2191 3584 2531 3537 
Q 2872 3491 3272 3391 
z
" transform="scale(0.015625)"/>
      <path id="DejaVuSans-Bold-20" transform="scale(0.015625)"/>
      <path id="DejaVuSans-Bold-50" d="M 588 4666 
L 2584 4666 
Q 3475 4666 3951 4270 
Q 4428 3875 4428 3144 
Q 4428 2409 3951 2014 
Q 3475 1619 2584 1619 
L 1791 1619 
L 1791 0 
L 588 0 
L 588 4666 
z
M 1791 3794 
L 1791 2491 
L 2456 2491 
Q 2806 2491 2997 2661 
Q 3188 2831 3188 3144 
Q 3188 3456 2997 3625 
Q 2806 3794 2456 3794 
L 1791 3794 
z
" transform="scale(0.015625)"/>
      <path id="DejaVuSans-Bold-52" d="M 2297 2597 
Q 2675 2597 2839 2737 
Q 3003 2878 3003 3200 
Q 3003 3519 2839 3656 
Q 2675 3794 2297 3794 
L 1791 3794 
L 1791 2597 
L 2297 2597 
z
M 1791 1766 
L 1791 0 
L 588 0 
L 588 4666 
L 2425 4666 
Q 3347 4666 3776 4356 
Q 4206 4047 4206 3378 
Q 4206 2916 3982 2619 
Q 3759 2322 3309 2181 
Q 3556 2125 3751 1926 
Q 3947 1728 4147 1325 
L 4800 0 
L 3519 0 
L 2950 1159 
Q 2778 1509 2601 1637 
Q 2425 1766 2131 1766 
L 1791 1766 
z
" transform="scale(0.015625)"/>
      <path id="DejaVuSans-Bold-4d" d="M 588 4666 
L 2119 4666 
L 3181 2169 
L 4250 4666 
L 5778 4666 
L 5778 0 
L 4641 0 
L 4641 3413 
L 3566 897 
L 2803 897 
L 1728 3413 
L 1728 0 
L 588 0 
L 588 4666 
z
" transform="scale(0.015625)"/>
     </defs>
     <use xlink:href="#DejaVuSans-Bold-45"/>
     <use xlink:href="#DejaVuSans-Bold-61" x="68.310547"/>
     <use xlink:href="#DejaVuSans-Bold-72" x="135.791016"/>
     <use xlink:href="#DejaVuSans-Bold-6e" x="185.107422"/>
     <use xlink:href="#DejaVuSans-Bold-69" x="256.298828"/>
     <use xlink:href="#DejaVuSans-Bold-6e" x="290.576172"/>
     <use xlink:href="#DejaVuSans-Bold-67" x="361.767578"/>
     <use xlink:href="#DejaVuSans-Bold-73" x="433.349609"/>
     <use xlink:href="#DejaVuSans-Bold-20" x="492.871094"/>
     <use xlink:href="#DejaVuSans-Bold-50" x="527.685547"/>
     <use xlink:href="#DejaVuSans-Bold-45" x="600.976562"/>
     <use xlink:href="#DejaVuSans-Bold-52" x="669.287109"/>
     <use xlink:href="#DejaVuSans-Bold-4d" x="746.289062"/>
    </g>
   </g>
  </g>
  <g id="legend_1">
   <g id="line2d_58">
    <path d="M 111.106719 522.745312 
L 125.106719 522.745312 
L 139.106719 522.745312 
" style="fill: none; stroke-dasharray: 1.5,2.475; stroke-dashoffset: 0; stroke: #1f77b4; stroke-width: 1.5"/>
   </g>
   <g id="text_30">
    <!-- BC vs NP -->
    <g transform="translate(150.306719 527.645312) scale(0.14 -0.14)">
     <defs>
      <path id="DejaVuSans-42" d="M 1259 2228 
L 1259 519 
L 2272 519 
Q 2781 519 3026 730 
Q 3272 941 3272 1375 
Q 3272 1813 3026 2020 
Q 2781 2228 2272 2228 
L 1259 2228 
z
M 1259 4147 
L 1259 2741 
L 2194 2741 
Q 2656 2741 2882 2914 
Q 3109 3088 3109 3444 
Q 3109 3797 2882 3972 
Q 2656 4147 2194 4147 
L 1259 4147 
z
M 628 4666 
L 2241 4666 
Q 2963 4666 3353 4366 
Q 3744 4066 3744 3513 
Q 3744 3084 3544 2831 
Q 3344 2578 2956 2516 
Q 3422 2416 3680 2098 
Q 3938 1781 3938 1306 
Q 3938 681 3513 340 
Q 3088 0 2303 0 
L 628 0 
L 628 4666 
z
" transform="scale(0.015625)"/>
      <path id="DejaVuSans-43" d="M 4122 4306 
L 4122 3641 
Q 3803 3938 3442 4084 
Q 3081 4231 2675 4231 
Q 1875 4231 1450 3742 
Q 1025 3253 1025 2328 
Q 1025 1406 1450 917 
Q 1875 428 2675 428 
Q 3081 428 3442 575 
Q 3803 722 4122 1019 
L 4122 359 
Q 3791 134 3420 21 
Q 3050 -91 2638 -91 
Q 1578 -91 968 557 
Q 359 1206 359 2328 
Q 359 3453 968 4101 
Q 1578 4750 2638 4750 
Q 3056 4750 3426 4639 
Q 3797 4528 4122 4306 
z
" transform="scale(0.015625)"/>
      <path id="DejaVuSans-76" d="M 191 3500 
L 800 3500 
L 1894 563 
L 2988 3500 
L 3597 3500 
L 2284 0 
L 1503 0 
L 191 3500 
z
" transform="scale(0.015625)"/>
      <path id="DejaVuSans-4e" d="M 628 4666 
L 1478 4666 
L 3547 763 
L 3547 4666 
L 4159 4666 
L 4159 0 
L 3309 0 
L 1241 3903 
L 1241 0 
L 628 0 
L 628 4666 
z
" transform="scale(0.015625)"/>
      <path id="DejaVuSans-50" d="M 1259 4147 
L 1259 2394 
L 2053 2394 
Q 2494 2394 2734 2622 
Q 2975 2850 2975 3272 
Q 2975 3691 2734 3919 
Q 2494 4147 2053 4147 
L 1259 4147 
z
M 628 4666 
L 2053 4666 
Q 2838 4666 3239 4311 
Q 3641 3956 3641 3272 
Q 3641 2581 3239 2228 
Q 2838 1875 2053 1875 
L 1259 1875 
L 1259 0 
L 628 0 
L 628 4666 
z
" transform="scale(0.015625)"/>
     </defs>
     <use xlink:href="#DejaVuSans-42"/>
     <use xlink:href="#DejaVuSans-43" x="66.853516"/>
     <use xlink:href="#DejaVuSans-20" x="136.677734"/>
     <use xlink:href="#DejaVuSans-76" x="168.464844"/>
     <use xlink:href="#DejaVuSans-73" x="227.644531"/>
     <use xlink:href="#DejaVuSans-20" x="279.744141"/>
     <use xlink:href="#DejaVuSans-4e" x="311.53125"/>
     <use xlink:href="#DejaVuSans-50" x="386.335938"/>
    </g>
   </g>
   <g id="line2d_59">
    <path d="M 240.836406 522.745312 
L 254.836406 522.745312 
L 268.836406 522.745312 
" style="fill: none; stroke-dasharray: 1.5,2.475; stroke-dashoffset: 0; stroke: #ff7f0e; stroke-width: 1.5"/>
   </g>
   <g id="text_31">
    <!-- EP vs NP -->
    <g transform="translate(280.036406 527.645312) scale(0.14 -0.14)">
     <use xlink:href="#DejaVuSans-45"/>
     <use xlink:href="#DejaVuSans-50" x="63.183594"/>
     <use xlink:href="#DejaVuSans-20" x="123.486328"/>
     <use xlink:href="#DejaVuSans-76" x="155.273438"/>
     <use xlink:href="#DejaVuSans-73" x="214.453125"/>
     <use xlink:href="#DejaVuSans-20" x="266.552734"/>
     <use xlink:href="#DejaVuSans-4e" x="298.339844"/>
     <use xlink:href="#DejaVuSans-50" x="373.144531"/>
    </g>
   </g>
   <g id="line2d_60">
    <path d="M 368.717656 522.745312 
L 382.717656 522.745312 
L 396.717656 522.745312 
" style="fill: none; stroke-dasharray: 1.5,2.475; stroke-dashoffset: 0; stroke: #2ca02c; stroke-width: 1.5"/>
   </g>
   <g id="text_32">
    <!-- TC vs NP -->
    <g transform="translate(407.917656 527.645312) scale(0.14 -0.14)">
     <use xlink:href="#DejaVuSans-54"/>
     <use xlink:href="#DejaVuSans-43" x="55.208984"/>
     <use xlink:href="#DejaVuSans-20" x="125.033203"/>
     <use xlink:href="#DejaVuSans-76" x="156.820312"/>
     <use xlink:href="#DejaVuSans-73" x="216"/>
     <use xlink:href="#DejaVuSans-20" x="268.099609"/>
     <use xlink:href="#DejaVuSans-4e" x="299.886719"/>
     <use xlink:href="#DejaVuSans-50" x="374.691406"/>
    </g>
   </g>
   <g id="line2d_61">
    <path d="M 496.815469 522.745312 
L 510.815469 522.745312 
L 524.815469 522.745312 
" style="fill: none; stroke-dasharray: 1.5,2.475; stroke-dashoffset: 0; stroke: #d62728; stroke-width: 1.5"/>
   </g>
   <g id="text_33">
    <!-- WS vs NP -->
    <g transform="translate(536.015469 527.645312) scale(0.14 -0.14)">
     <defs>
      <path id="DejaVuSans-57" d="M 213 4666 
L 850 4666 
L 1831 722 
L 2809 4666 
L 3519 4666 
L 4500 722 
L 5478 4666 
L 6119 4666 
L 4947 0 
L 4153 0 
L 3169 4050 
L 2175 0 
L 1381 0 
L 213 4666 
z
" transform="scale(0.015625)"/>
      <path id="DejaVuSans-53" d="M 3425 4513 
L 3425 3897 
Q 3066 4069 2747 4153 
Q 2428 4238 2131 4238 
Q 1616 4238 1336 4038 
Q 1056 3838 1056 3469 
Q 1056 3159 1242 3001 
Q 1428 2844 1947 2747 
L 2328 2669 
Q 3034 2534 3370 2195 
Q 3706 1856 3706 1288 
Q 3706 609 3251 259 
Q 2797 -91 1919 -91 
Q 1588 -91 1214 -16 
Q 841 59 441 206 
L 441 856 
Q 825 641 1194 531 
Q 1563 422 1919 422 
Q 2459 422 2753 634 
Q 3047 847 3047 1241 
Q 3047 1584 2836 1778 
Q 2625 1972 2144 2069 
L 1759 2144 
Q 1053 2284 737 2584 
Q 422 2884 422 3419 
Q 422 4038 858 4394 
Q 1294 4750 2059 4750 
Q 2388 4750 2728 4690 
Q 3069 4631 3425 4513 
z
" transform="scale(0.015625)"/>
     </defs>
     <use xlink:href="#DejaVuSans-57"/>
     <use xlink:href="#DejaVuSans-53" x="98.876953"/>
     <use xlink:href="#DejaVuSans-20" x="162.353516"/>
     <use xlink:href="#DejaVuSans-76" x="194.140625"/>
     <use xlink:href="#DejaVuSans-73" x="253.320312"/>
     <use xlink:href="#DejaVuSans-20" x="305.419922"/>
     <use xlink:href="#DejaVuSans-4e" x="337.207031"/>
     <use xlink:href="#DejaVuSans-50" x="412.011719"/>
    </g>
   </g>
  </g>
 </g>
 <defs>
  <clipPath id="p5f136c3cb6">
   <rect x="95.065938" y="28.396875" width="610.98" height="436.5"/>
  </clipPath>
 </defs>
</svg>
