<?xml version="1.0" standalone="no"?>
<!DOCTYPE svg PUBLIC "-//W3C//DTD SVG 20010904//EN"
 "http://www.w3.org/TR/2001/REC-SVG-20010904/DTD/svg10.dtd">
<svg version="1.0" xmlns="http://www.w3.org/2000/svg"
 width="768.000000pt" height="768.000000pt" viewBox="0 0 768.000000 768.000000"
 preserveAspectRatio="xMidYMid meet">

<g transform="translate(0.000000,768.000000) scale(0.100000,-0.100000)"
fill="#000000" stroke="none">
<path d="M750 6280 l0 -650 653 2 652 3 3 648 2 647 -655 0 -655 0 0 -650z
m1120 5 l0 -475 -467 2 -468 3 0 458 c0 253 2 463 6 468 3 5 165 10 360 12
194 1 402 3 462 5 l107 2 0 -475z"/>
<path d="M1120 6283 l0 -278 143 0 c78 1 204 2 280 3 l137 2 0 275 0 275 -280
0 -280 0 0 -277z"/>
<path d="M2250 6839 l0 -91 148 2 c81 2 164 2 185 2 l37 -2 0 -95 0 -95 -185
0 -185 0 0 -90 0 -89 88 -3 87 -3 3 -92 3 -93 -91 0 -90 0 0 -95 0 -95 90 0
91 0 -3 -92 -3 -93 -92 -5 -92 -5 3 -140 c6 -244 -1 -215 50 -215 24 0 64 -3
90 -6 l46 -7 0 -183 0 -184 -90 0 -89 0 -3 88 -3 87 -90 5 -90 5 -3 93 -3 94
-184 -3 -185 -3 0 -93 0 -93 -285 0 -285 0 0 -90 0 -90 80 -1 c44 -1 86 -2 93
-3 9 -1 12 -27 12 -96 l0 -95 -187 -3 -188 -2 0 -90 0 -90 -90 0 -90 0 0 -185
0 -185 185 0 185 0 0 -190 0 -190 -185 0 -185 0 0 -190 0 -190 90 0 90 0 0
-82 c0 -46 -4 -89 -9 -96 -6 -10 -30 -13 -90 -10 l-81 3 0 -87 0 -88 28 -1
c15 0 98 -1 184 -2 l157 -2 3 90 3 90 93 3 92 3 0 89 0 90 89 0 88 0 7 53 c3
28 6 71 6 95 l0 42 90 0 90 0 0 -280 0 -280 -90 0 -90 0 0 -89 c0 -84 -1 -89
-22 -95 -13 -3 -98 -6 -190 -6 l-168 0 0 -37 c0 -21 3 -62 6 -90 l7 -53 83 0
84 0 0 -185 0 -185 -180 0 -180 0 0 275 0 275 -95 0 -95 0 0 -370 0 -370 465
0 465 0 0 64 c0 35 3 78 6 95 l7 31 88 0 89 0 0 -95 0 -95 185 0 185 0 0 -90
0 -90 188 2 187 3 5 175 5 175 88 3 87 3 0 -275 c0 -240 -2 -275 -16 -280 -9
-3 -49 -6 -90 -6 l-74 0 0 -95 0 -96 -92 3 -93 3 -5 95 -5 95 -90 0 -90 0 -3
-92 -3 -92 93 -3 93 -3 3 -462 2 -463 280 0 280 0 0 53 c0 28 3 69 6 90 l7 37
88 0 89 0 0 -44 c0 -24 3 -64 6 -90 l7 -46 88 0 89 0 0 90 0 90 -95 0 -95 0 0
185 0 184 -92 3 -93 3 1 90 2 90 186 3 186 2 0 90 0 90 183 2 182 3 5 87 c3
48 9 90 14 95 4 4 88 9 187 11 l179 3 0 -189 0 -189 -37 -5 c-32 -4 -90 -3
-140 1 -9 1 -13 26 -13 91 l0 90 -95 0 -96 0 3 -87 3 -88 93 -3 92 -3 0 -279
0 -280 -90 0 -90 0 0 185 0 185 -100 0 -100 0 0 -185 0 -185 100 0 100 0 0
-90 0 -90 184 0 c161 0 185 2 190 16 4 9 6 175 6 368 l-1 351 178 0 178 0 3
-92 3 -93 94 0 95 0 0 -90 0 -90 95 0 95 0 0 90 0 90 185 0 185 0 0 95 0 95
73 0 c120 0 117 2 117 -101 l0 -89 90 0 90 0 0 96 0 95 93 -3 92 -3 3 -93 3
-92 94 0 95 0 0 -95 0 -95 183 2 182 3 7 75 c9 113 12 110 -93 110 l-89 0 0
185 0 185 185 0 185 0 0 -95 0 -95 -89 0 c-104 0 -101 3 -101 -106 l0 -74 95
0 95 0 0 -95 0 -95 -89 0 c-104 0 -101 3 -101 -106 l0 -74 -90 0 -90 0 0 -90
0 -90 95 0 95 0 0 90 0 90 89 0 89 0 8 -90 7 -90 88 0 89 0 0 90 0 90 -95 0
-95 0 0 89 0 89 31 6 c17 3 103 6 190 6 l159 0 0 275 0 275 -95 0 -95 0 0 185
0 184 -92 3 -93 3 -3 93 -3 93 -92 -3 -92 -3 -3 -93 -3 -93 -87 3 -87 3 -3
125 c-2 69 0 153 3 188 l7 62 274 0 274 0 0 -185 0 -185 79 0 c44 0 86 3 95 6
14 5 16 39 16 275 l0 269 -470 0 -470 0 0 -85 0 -85 -280 0 -280 0 0 185 0
185 90 0 90 0 0 90 0 90 -275 0 -275 0 0 94 0 94 143 7 c78 4 244 5 370 3
l227 -3 0 46 c0 25 3 67 6 92 l7 46 86 3 86 3 3 182 2 183 188 2 187 3 3 93 3
92 89 0 90 0 0 95 0 95 95 0 95 0 0 -95 0 -95 95 0 95 0 0 90 0 90 -79 0
c-115 0 -111 -3 -111 101 l0 89 -95 0 -95 0 0 -90 0 -90 -95 0 -95 0 0 -95 0
-95 -90 0 -90 0 0 185 0 185 -95 0 -95 0 0 -280 0 -280 -185 0 -185 0 0 -95 0
-95 -95 0 -95 0 0 95 0 95 -95 0 -95 0 0 190 0 190 94 0 94 0 6 -31 c3 -17 6
-58 6 -90 l0 -59 90 0 90 0 0 90 0 90 -95 0 -95 0 0 95 0 95 183 0 184 0 6
176 c4 97 4 180 1 185 -3 5 -45 9 -95 9 l-89 0 0 -64 c0 -35 -3 -78 -6 -95
l-6 -31 -89 0 -89 0 0 -89 c0 -103 2 -101 -95 -101 -93 0 -95 2 -95 75 0 34 3
77 6 94 l7 31 88 0 89 0 0 90 0 90 89 0 c104 0 101 -3 101 105 l0 74 -92 3
-93 3 0 95 0 95 93 3 92 3 0 89 0 90 38 0 c20 1 61 3 90 5 l52 4 0 -100 0 -99
-90 0 -90 0 0 -90 0 -89 88 -3 87 -3 3 -92 3 -93 93 0 c76 0 95 3 100 16 3 9
6 92 6 185 l0 169 90 0 90 0 0 -370 0 -371 93 3 c64 2 92 7 93 16 1 6 2 89 3
182 l1 170 90 0 90 0 0 -95 0 -95 95 0 95 0 0 -90 0 -90 95 0 95 0 0 185 0
185 -95 0 -95 0 0 280 0 280 95 0 95 0 0 90 0 90 -95 0 -95 0 0 -90 0 -90 -95
0 -95 0 0 90 0 90 -90 0 -90 0 0 -90 0 -90 -95 0 -95 0 0 90 0 90 -95 0 -95 0
0 -90 0 -91 -92 3 -93 3 -1 85 -2 85 -89 3 -90 3 -7 -47 c-3 -26 -6 -66 -6
-90 l0 -44 -280 0 -279 0 -3 -92 -3 -93 -85 0 -85 0 -3 93 -3 92 -279 0 -280
0 0 -84 c0 -47 -4 -87 -8 -90 -4 -2 -46 -6 -92 -7 l-85 -2 -3 91 -3 91 -92 3
-92 3 -3 88 -3 87 -43 0 c-24 0 -64 3 -90 6 l-47 7 3 91 3 91 88 3 87 3 0 89
0 90 -90 0 -90 0 0 95 0 95 90 0 90 0 0 95 0 95 -180 0 c-206 0 -181 -16 -184
115 l-1 70 -97 3 -98 3 0 89 0 90 -90 0 -90 0 0 95 c0 90 1 95 23 100 12 3 96
4 186 3 l164 -3 -2 -71 c-1 -39 1 -83 4 -97 7 -27 8 -27 96 -27 l89 0 0 -90 0
-90 90 0 90 0 0 90 0 90 264 0 c145 0 271 3 280 6 13 5 16 23 16 95 l0 89 -90
0 -90 0 0 90 0 90 -185 0 -185 0 0 -90 0 -90 -185 0 -185 0 0 90 0 90 -190 0
-190 0 0 -90 0 -90 -95 0 -94 0 -3 88 -3 87 -87 3 -88 3 0 -78 c0 -43 -4 -84
-8 -91 -6 -9 -33 -12 -98 -10 l-89 3 -1 85 0 85 -187 3 -187 2 0 -91z m745
-230 c1 -79 2 -163 3 -186 l2 -43 90 0 90 0 0 -95 0 -95 95 0 95 0 0 -95 0
-94 93 -3 92 -3 3 -92 3 -93 95 0 95 0 -3 -92 -3 -93 -92 -3 -93 -3 0 96 0 95
-95 0 -95 0 0 -89 0 -88 -87 -6 c-49 -3 -89 -4 -91 -2 -2 2 -4 43 -5 92 l-2
88 -97 3 -98 3 0 -91 0 -90 95 0 95 0 0 -95 0 -95 95 0 95 0 0 -185 0 -185
185 0 184 0 3 -92 3 -93 183 -3 182 -2 0 -95 0 -95 95 0 95 0 0 -169 c0 -93 3
-176 6 -185 5 -13 23 -16 89 -16 l83 0 7 -75 c3 -41 3 -79 0 -86 -4 -6 -4 -98
0 -205 l7 -194 94 0 94 0 2 278 3 277 93 3 92 3 0 -96 0 -95 89 0 89 0 7 95 7
95 89 0 89 0 0 -95 0 -95 -95 0 -95 0 0 -279 c0 -245 -2 -280 -16 -285 -9 -3
-49 -6 -90 -6 l-74 0 0 -90 0 -90 90 0 90 0 0 -95 0 -95 -90 0 -90 0 0 -185 0
-185 180 0 181 0 -3 -97 -3 -98 -177 -3 -178 -2 0 -273 0 -273 90 1 90 2 0
-94 0 -93 73 -2 c39 -1 80 -2 90 -1 16 0 17 -16 17 -194 l0 -193 -180 0 -180
0 0 -90 0 -90 -95 0 -95 0 0 95 0 95 95 0 95 0 0 90 0 90 -89 0 -88 0 -7 31
c-3 17 -6 60 -6 94 0 75 0 75 111 75 l79 0 0 90 0 90 -95 0 -95 0 0 -89 c0
-103 2 -101 -95 -101 -97 0 -95 -2 -95 101 0 64 4 89 13 90 6 0 31 0 55 -1 24
-1 61 1 83 5 l39 7 0 89 0 89 -95 0 -95 0 0 -95 0 -95 -90 0 -90 0 0 -90 0
-90 90 0 90 0 0 -100 0 -100 -90 0 -90 0 0 101 0 101 -37 -3 c-21 -1 -64 -1
-95 0 l-58 1 -2 181 -3 182 -87 -2 -88 -2 0 95 0 95 -92 3 -93 3 -3 88 -3 87
-94 0 -95 0 0 -180 0 -180 89 0 c54 0 93 -4 97 -11 3 -6 3 -49 -1 -95 l-7 -84
-184 0 -184 0 0 275 0 275 -90 0 -90 0 0 95 0 94 -92 3 -93 3 -3 93 -3 92 -94
0 -95 0 0 -90 0 -90 95 0 96 0 -3 -97 -3 -98 -375 0 -375 0 -3 98 -3 97 -178
0 -178 0 -7 38 c-3 20 -6 63 -6 94 l0 57 93 3 92 3 3 87 3 87 -93 3 -93 3 0
90 0 90 181 3 181 2 7 -46 c3 -26 6 -107 6 -180 l0 -134 38 0 c20 0 61 -3 90
-6 l52 -7 0 -98 0 -99 94 0 93 0 7 77 c3 42 6 127 6 190 l0 113 84 0 84 0 6
31 c3 17 6 58 6 90 l0 59 -185 0 -185 0 0 190 0 190 -190 0 -190 0 0 95 0 95
-95 0 -95 0 0 -96 0 -95 83 1 c45 1 88 1 95 1 9 -1 12 -27 12 -96 l0 -95 -95
0 -95 0 0 95 0 95 -96 0 -96 0 3 188 4 187 -92 3 -93 3 0 89 0 90 -95 0 -95 0
2 283 3 282 92 3 92 3 3 92 3 92 92 3 92 3 3 92 3 92 183 3 183 3 -3 -98 -3
-98 -92 -3 -93 -3 0 -94 0 -95 -185 0 -185 0 0 -90 0 -90 90 0 90 0 0 -89 c0
-50 4 -92 9 -96 5 -3 134 -2 286 2 l276 6 -3 86 -3 86 -182 3 -183 2 0 95 0
95 370 0 370 0 0 83 c0 45 4 88 9 95 5 9 31 12 90 10 l82 -3 -1 -241 c0 -133
2 -260 6 -283 l7 -41 183 0 184 0 0 185 0 184 -92 3 -93 3 -3 98 -3 97 -89 0
-90 0 0 90 0 90 -88 0 c-49 0 -91 2 -93 4 -2 2 -3 45 -1 95 l3 91 177 2 177 3
3 93 3 92 -91 0 -90 0 0 90 0 90 -95 0 -95 0 0 -89 0 -88 -31 -7 c-17 -3 -58
-6 -90 -6 l-59 0 0 95 0 95 90 0 90 0 0 90 0 90 -79 0 c-115 0 -111 -4 -111
106 l0 94 95 0 95 0 0 185 c0 141 3 185 13 186 6 1 31 1 54 -1 24 -1 61 1 83
5 l40 7 0 88 0 89 53 3 c28 2 70 2 92 2 l40 -1 0 -144z m3555 -1544 l0 -185
-90 0 -90 0 0 185 0 185 90 0 90 0 0 -185z m-1682 -92 l-3 -98 -185 0 -185 0
-3 84 c-2 46 -1 90 2 98 4 10 46 13 191 13 l186 0 -3 -97z m367 -3 l0 -95 -90
0 -90 0 2 88 c1 48 5 92 9 98 4 7 37 9 88 7 l81 -3 0 -95z m-185 -370 c0 -154
-3 -280 -7 -281 -5 0 -44 -1 -88 -2 l-80 -1 -3 269 c-1 148 0 275 3 282 3 9
30 13 90 13 l85 0 0 -280z m-3935 48 c3 -24 2 -68 -2 -98 l-8 -55 -85 0 -85 0
-3 98 -3 97 90 0 90 0 6 -42z m3565 -53 l0 -95 -90 0 -90 0 0 95 0 95 90 0 90
0 0 -95z m-3380 -750 l0 -95 -90 0 -90 0 0 95 0 95 90 0 90 0 0 -95z m4128
-377 l-3 -93 -92 -3 -93 -3 0 96 0 95 95 0 96 0 -3 -92z m-3558 -362 c0 -93 0
-94 -27 -101 -14 -3 -56 -5 -92 -4 l-66 3 -3 -91 -3 -90 -37 -7 c-20 -3 -58
-6 -83 -6 -56 0 -59 6 -59 123 l0 77 90 0 90 0 0 89 c0 104 -6 98 113 100 l77
1 0 -94z m-190 -563 l0 -92 -42 -6 c-24 -4 -63 -5 -88 -3 l-45 3 -3 84 c-2 46
0 91 3 98 4 11 24 14 90 11 l85 -3 0 -92z m380 3 l0 -93 -37 -7 c-49 -8 -117
-8 -137 0 -17 7 -22 83 -10 157 l7 37 88 0 89 0 0 -94z m1098 -112 c22 -6 22
-8 22 -185 l0 -179 -90 0 -90 0 0 178 c0 98 3 182 7 185 8 9 120 9 151 1z
m2830 -456 l-3 -283 -277 -3 -278 -2 0 285 0 285 280 0 280 0 -2 -282z m-2839
-94 l31 -6 0 -94 0 -94 -95 0 -95 0 0 -90 0 -90 -82 -1 c-46 -1 -86 -1 -90 0
-5 0 -8 -42 -8 -94 l0 -95 90 0 90 0 0 -95 0 -95 -95 0 -95 0 0 -90 0 -90 -90
0 -90 0 0 280 0 280 89 0 89 0 6 31 c3 17 6 100 6 184 0 83 3 155 7 158 8 9
290 9 332 1z m3586 -469 l0 -90 -92 -3 -93 -3 0 90 c0 62 4 91 13 95 6 2 48 4
92 3 l80 -2 0 -90z"/>
<path d="M3180 5902 l0 -93 93 3 92 3 3 93 3 94 -96 -4 -95 -3 0 -93z"/>
<path d="M2992 5348 l3 -93 60 -3 c33 -2 75 0 93 3 l32 6 0 89 0 90 -95 0 -96
0 3 -92z"/>
<path d="M3370 4500 l0 -370 -95 0 -95 0 0 90 0 90 -185 0 -185 0 0 -85 0 -85
48 0 c26 0 64 -3 85 -6 l37 -7 0 -94 0 -93 193 2 192 3 3 93 c2 63 7 92 15 93
7 0 26 2 42 3 17 1 54 3 83 4 l52 2 0 180 0 180 89 0 89 0 7 73 c11 116 15
112 -93 115 l-92 3 0 89 0 90 -95 0 -95 0 0 -370z"/>
<path d="M3928 4503 l-3 -188 -86 -3 -87 -3 -6 -37 c-3 -20 -6 -61 -6 -89 l0
-53 -90 0 -90 0 0 -57 c0 -32 -3 -75 -6 -95 l-7 -38 -88 0 -89 0 0 -90 0 -90
185 0 185 0 0 90 0 89 93 3 92 3 5 185 5 185 87 3 87 3 3 162 c4 228 14 207
-92 207 l-90 0 -2 -187z"/>
<path d="M2428 4503 l-178 -3 0 -90 0 -90 185 0 185 0 0 95 c0 52 -3 94 -7 93
-5 -1 -88 -4 -185 -5z"/>
<path d="M1870 4225 l0 -85 95 0 95 0 0 85 0 85 -95 0 -95 0 0 -85z"/>
<path d="M2060 4035 l0 -95 90 0 90 0 0 95 0 95 -90 0 -90 0 0 -95z"/>
<path d="M2432 4038 l3 -93 90 0 90 0 3 93 3 92 -96 0 -96 0 3 -92z"/>
<path d="M4110 4035 l0 -95 95 0 95 0 0 95 0 95 -95 0 -95 0 0 -95z"/>
<path d="M2624 3737 c-3 -8 -4 -49 -2 -93 l3 -79 93 -3 92 -3 0 -94 0 -95 89
0 88 0 7 -52 c3 -29 6 -67 6 -85 0 -31 0 -31 58 -35 31 -2 71 -2 88 0 30 4 32
7 38 55 3 29 6 109 6 180 l0 127 -95 0 -95 0 0 89 c0 72 -3 90 -16 95 -9 3
-92 6 -185 6 -132 0 -171 -3 -175 -13z"/>
<path d="M3933 3488 c4 -145 7 -269 7 -275 0 -10 62 -13 275 -13 l275 0 0 90
0 90 95 0 95 0 0 90 0 90 -280 0 -280 0 0 95 0 95 -97 0 -96 0 6 -262z"/>
<path d="M3370 3470 l0 -90 95 0 95 0 0 -95 0 -95 -95 0 -95 0 0 -90 0 -90 95
0 95 0 0 -95 0 -95 90 0 90 0 0 89 0 88 -46 7 c-26 3 -66 6 -90 6 l-44 0 0 89
c0 104 -4 101 111 101 l79 0 0 90 0 90 -95 0 -95 0 0 90 0 90 -95 0 -95 0 0
-90z"/>
<path d="M4490 3133 c0 -32 -3 -75 -6 -95 l-7 -38 -178 0 -179 0 0 -90 0 -90
-95 0 -95 0 0 -90 0 -90 95 0 95 0 0 90 0 91 93 -3 92 -3 3 -182 2 -182 -33
-6 c-18 -4 -48 -5 -67 -4 -19 1 -47 2 -62 1 l-28 -2 0 -90 0 -90 95 0 95 0 0
90 0 90 50 2 c28 1 65 2 83 2 41 1 45 12 46 108 1 72 3 78 24 83 12 3 95 5
185 3 l162 -3 0 46 c0 25 3 67 6 93 l7 46 -97 0 -96 0 0 185 0 185 -95 0 -95
0 0 -57z"/>
<path d="M5620 1970 l0 -90 90 0 90 0 0 90 0 90 -90 0 -90 0 0 -90z"/>
<path d="M4866 6908 c-3 -13 -6 -53 -6 -90 l0 -68 -85 0 -85 0 0 -184 0 -184
-51 -7 c-28 -4 -104 -6 -168 -5 -64 2 -169 2 -233 2 l-118 -2 0 -185 0 -185
370 0 370 0 0 -164 c0 -90 3 -171 6 -180 5 -13 23 -16 95 -16 l89 0 0 -94 0
-93 48 -7 c26 -3 111 -3 190 0 l142 7 0 739 0 738 -95 0 -95 0 0 -185 0 -185
-90 0 -90 0 0 185 0 185 -94 0 c-89 0 -94 -1 -100 -22z m192 -625 l3 -93 90 0
89 0 -2 -277 -3 -278 -87 -3 -88 -3 0 281 0 280 -95 0 -95 0 0 88 c0 49 3 92
7 96 4 4 46 5 93 4 l85 -3 3 -92z"/>
<path d="M5615 6498 c-3 -238 -5 -530 -3 -648 l3 -215 658 -3 657 -2 0 650 0
650 -654 0 -654 0 -7 -432z m1093 257 l32 -6 0 -469 0 -470 -465 0 -465 0 0
470 0 469 133 3 c326 7 735 9 765 3z"/>
<path d="M6000 6283 l0 -278 83 -2 c45 -2 169 0 275 3 l192 6 0 274 0 274
-275 0 -275 0 0 -277z"/>
<path d="M4120 5630 l0 -180 280 0 280 0 0 180 0 181 -92 -3 -93 -3 -3 -87 -3
-88 -89 0 -90 0 0 90 0 90 -95 0 -95 0 0 -180z"/>
<path d="M744 5204 c3 -26 6 -66 6 -90 l0 -44 89 0 88 0 7 81 c4 44 4 84 1 90
-4 5 -49 9 -102 9 l-96 0 7 -46z"/>
<path d="M6740 3655 l0 -95 -280 0 -280 0 -2 -182 -3 -183 -185 -5 -185 -5 0
-275 0 -275 93 -3 92 -3 0 96 0 95 95 0 95 0 0 76 c0 109 4 114 99 114 l78 0
7 38 c3 20 6 60 6 89 l0 51 65 7 c36 4 76 5 90 3 25 -5 25 -5 25 68 0 40 3 79
6 88 5 14 32 16 190 16 l184 0 0 184 0 183 -67 6 c-38 4 -80 7 -95 7 l-28 0 0
-95z"/>
<path d="M6370 2913 l0 -93 90 0 90 0 0 89 0 90 -90 3 -90 3 0 -92z"/>
<path d="M742 1472 c-2 -323 -1 -614 3 -645 l7 -57 654 0 654 0 0 645 0 645
-657 0 -658 0 -3 -588z m1128 -57 l0 -465 -466 2 -466 3 -2 458 c0 252 1 461
3 463 2 2 213 4 468 4 l463 0 0 -465z"/>
<path d="M1120 1415 l0 -275 280 0 280 0 0 275 0 275 -280 0 -280 0 0 -275z"/>
<path d="M4870 1040 l0 -90 -100 0 -100 0 0 -90 0 -90 94 0 c109 0 106 -3 106
106 l0 74 90 0 90 0 0 90 0 90 -90 0 -90 0 0 -90z"/>
<path d="M5430 1040 l0 -89 -97 -3 -98 -3 -3 -87 -3 -88 101 0 100 0 0 90 0
90 89 0 c103 0 101 -3 101 113 l0 67 -95 0 -95 0 0 -90z"/>
<path d="M5610 860 l0 -90 95 0 95 0 0 90 0 90 -95 0 -95 0 0 -90z"/>
</g>
</svg>
